<svg xmlns="http://www.w3.org/2000/svg" height="120" width="120" xml:space="preserve"><path style="fill:#e44320;fill-opacity:1;fill-rule:nonzero;stroke:none" d="M718.203 449.996c0-148.121-120.078-268.191-268.203-268.191-148.125 0-268.203 120.07-268.203 268.191 0 148.125 120.078 268.203 268.203 268.203 148.125 0 268.203-120.078 268.203-268.203" transform="matrix(.13333 0 0 -.13333 0 120)"/><path style="fill:#fff;fill-opacity:1;fill-rule:nonzero;stroke:none" d="m608.398 377.977-30.402 13.75-113.453-54.446c-3.977-1.902-9.145-2.957-14.543-2.957s-10.566 1.055-14.539 2.957l-113.457 54.446-30.402-13.75c-5.872-2.657-5.965-10.957-.157-13.75l149.641-71.797c2.227-1.067 5.477-1.68 8.914-1.68 3.438 0 6.688.613 8.918 1.68l149.637 71.797c5.8 2.793 5.715 11.093-.157 13.75M291.445 523.492l46.035-22.09 103.606-49.707c2.227-1.062 5.477-1.675 8.914-1.675 3.438 0 6.688.613 8.918 1.675l103.602 49.707 46.035 22.09c5.8 2.793 5.715 11.098-.157 13.75l-149.226 67.485c-2.297 1.035-5.637 1.628-9.172 1.628-3.535 0-6.875-.593-9.172-1.628l-149.226-67.485c-5.872-2.652-5.965-10.957-.157-13.75" transform="matrix(.13333 0 0 -.13333 0 120)"/><path style="fill:#fff;fill-opacity:1;fill-rule:nonzero;stroke:none" d="m291.445 443.863 149.641-71.797c2.227-1.074 5.477-1.675 8.914-1.675 3.438 0 6.688.601 8.918 1.675l149.637 71.797c5.808 2.785 5.715 11.086-.157 13.742l-30.402 13.75-113.453-54.433c-3.977-1.914-9.145-2.969-14.543-2.969s-10.566 1.055-14.539 2.969l-113.457 54.433-30.402-13.75c-5.872-2.656-5.965-10.957-.157-13.742" transform="matrix(.13333 0 0 -.13333 0 120)"/></svg>