<svg xmlns="http://www.w3.org/2000/svg" height="120" width="120" xml:space="preserve"><path style="fill:#e44320;fill-opacity:1;fill-rule:nonzero;stroke:none" d="M718.199 449.996c0-148.121-120.074-268.191-268.199-268.191s-268.199 120.07-268.199 268.191c0 148.125 120.074 268.203 268.199 268.203s268.199-120.078 268.199-268.203" transform="matrix(.13333 0 0 -.13333 0 120)"/><path style="fill:#fff;fill-opacity:1;fill-rule:nonzero;stroke:none" d="M450 598.426c-11.254 0-22.48-1.289-33.492-3.836L520.41 414.617h73.735a148.911 148.911 0 0 1 4.273 35.379c0 81.84-66.586 148.43-148.418 148.43M450 301.57c59.082 0 112.691 35.469 136.109 89.129H393.406l-33.761-58.457C385.453 312.43 417.336 301.57 450 301.57M393.188 587.137c-55.004-22.824-91.606-77.285-91.606-137.141 0-38.035 14.133-73.687 39.961-101.266l94.652 163.915-43.007 74.492" transform="matrix(.13333 0 0 -.13333 0 120)"/></svg>