<svg xmlns="http://www.w3.org/2000/svg" height="120" width="120" xml:space="preserve"><path style="fill:#e44320;fill-opacity:1;fill-rule:nonzero;stroke:none" d="M718.199 449.996c0-148.121-120.074-268.191-268.199-268.191s-268.199 120.07-268.199 268.191c0 148.125 120.074 268.203 268.199 268.203s268.199-120.078 268.199-268.203" transform="matrix(.13333 0 0 -.13333 0 120)"/><path style="fill:#fff;fill-opacity:1;fill-rule:nonzero;stroke:none" d="M480.668 297.813H336.379c-19.094 0-34.57 15.464-34.57 34.57v144.285c0 19.094 15.476 34.57 34.57 34.57 19.09 0 34.566-15.476 34.566-34.57V366.949h109.723c19.094 0 34.57-15.476 34.57-34.566 0-19.106-15.476-34.57-34.57-34.57M570.852 387.984c-19.094 0-34.567 15.481-34.567 34.575v109.722H426.559c-19.094 0-34.571 15.481-34.571 34.574 0 19.09 15.477 34.571 34.571 34.571h144.293c19.089 0 34.57-15.481 34.57-34.571V422.559c0-19.094-15.481-34.575-34.57-34.575" transform="matrix(.13333 0 0 -.13333 0 120)"/></svg>