<svg xmlns="http://www.w3.org/2000/svg" height="120" width="120" xml:space="preserve"><path style="fill:#e44320;fill-opacity:1;fill-rule:nonzero;stroke:none" d="M718.203 449.996c0-148.121-120.078-268.191-268.203-268.191-148.125 0-268.203 120.07-268.203 268.191 0 148.125 120.078 268.203 268.203 268.203 148.125 0 268.203-120.078 268.203-268.203" transform="matrix(.13333 0 0 -.13333 0 120)"/><path style="fill:#fff;fill-opacity:1;fill-rule:evenodd;stroke:none" d="M539.297 476.824c3.301-8.386 5.09-17.285 5.09-26.953 0-40.43-33.071-73.23-73.496-73.23h-41.782v48.828l-97.91-73.496 97.91-73.235v48.821h41.782c67.644 0 122.312 54.929 122.312 122.312 0 20.598-4.824 39.922-13.984 56.965zm29.504 70.946-97.91 73.488v-49.07h-42.043c-67.383 0-122.051-54.68-122.051-122.317 0-20.344 5.078-39.668 13.984-56.699l39.922 30c-3.301 8.391-5.09 17.297-5.09 26.699 0 40.684 32.805 73.496 73.235 73.496h42.043v-49.082l97.91 73.485" transform="matrix(.13333 0 0 -.13333 0 120)"/></svg>