<svg xmlns="http://www.w3.org/2000/svg" height="120" width="120" xml:space="preserve"><path style="fill:#e44320;fill-opacity:1;fill-rule:nonzero;stroke:none" d="M718.203 449.996c0-148.121-120.078-268.191-268.203-268.191-148.125 0-268.203 120.07-268.203 268.191 0 148.125 120.078 268.203 268.203 268.203 148.125 0 268.203-120.078 268.203-268.203" transform="matrix(.13333 0 0 -.13333 0 120)"/><path style="fill:#fff;fill-opacity:1;fill-rule:nonzero;stroke:none" d="M484.148 597.488H356.504l120.137-147.492-120.137-147.488h127.644l120.137 147.488-120.137 147.492" transform="matrix(.13333 0 0 -.13333 0 120)"/><path style="fill:#fff;fill-opacity:1;fill-rule:nonzero;stroke:none" d="M368.223 533.777h-72.508l68.238-83.781-68.238-83.777h72.508l68.242 83.777-68.242 83.781" transform="matrix(.13333 0 0 -.13333 0 120)"/></svg>