<?xml version="1.0" encoding="UTF-8" standalone="no"?>
<svg
   height="268.053"
   width="631.493"
   xml:space="preserve"
   version="1.1"
   id="svg8"
   sodipodi:docname="alsea.svg"
   inkscape:version="1.1 (c4e8f9ed74, 2021-05-24)"
   xmlns:inkscape="http://www.inkscape.org/namespaces/inkscape"
   xmlns:sodipodi="http://sodipodi.sourceforge.net/DTD/sodipodi-0.dtd"
   xmlns="http://www.w3.org/2000/svg"
   xmlns:svg="http://www.w3.org/2000/svg"><defs
     id="defs12"><filter
       style="color-interpolation-filters:sRGB;"
       inkscape:label="Greyscale"
       id="filter16"
       x="0"
       y="0"
       width="1"
       height="1"><feColorMatrix
         values="0.21 0.72 0.072 0 0 0.21 0.72 0.072 0 0 0.21 0.72 0.072 0 0 0 0 0 1 0 "
         id="feColorMatrix14" /></filter><filter
       style="color-interpolation-filters:sRGB;"
       inkscape:label="Greyscale"
       id="filter38"
       x="0"
       y="0"
       width="1"
       height="1"><feColorMatrix
         values="0.21 0.72 0.072 0 0 0.21 0.72 0.072 0 0 0.21 0.72 0.072 0 0 0 0 0 1 0 "
         id="feColorMatrix36"
         result="fbSourceGraphic" /><feColorMatrix
         result="fbSourceGraphicAlpha"
         in="fbSourceGraphic"
         values="0 0 0 -1 0 0 0 0 -1 0 0 0 0 -1 0 0 0 0 1 0"
         id="feColorMatrix58" /><feColorMatrix
         id="feColorMatrix60"
         values="0.21 0.72 0.072 0 0 0.21 0.72 0.072 0 0 0.21 0.72 0.072 0 0 0 0 0 1 0 "
         in="fbSourceGraphic" /></filter><filter
       style="color-interpolation-filters:sRGB;"
       inkscape:label="Greyscale"
       id="filter17"
       x="0"
       y="0"
       width="1"
       height="1"><feColorMatrix
         values="0.21 0.72 0.072 0 0 0.21 0.72 0.072 0 0 0.21 0.72 0.072 0 0 0 0 0 1 0 "
         id="feColorMatrix15"
         result="fbSourceGraphic" /><feColorMatrix
         result="fbSourceGraphicAlpha"
         in="fbSourceGraphic"
         values="0 0 0 -1 0 0 0 0 -1 0 0 0 0 -1 0 0 0 0 1 0"
         id="feColorMatrix37" /><feColorMatrix
         id="feColorMatrix39"
         values="0.21 0.72 0.072 0 0 0.21 0.72 0.072 0 0 0.21 0.72 0.072 0 0 0 0 0 1 0 "
         in="fbSourceGraphic" /></filter></defs><sodipodi:namedview
     id="namedview10"
     pagecolor="#505050"
     bordercolor="#eeeeee"
     borderopacity="1"
     inkscape:pageshadow="0"
     inkscape:pageopacity="0"
     inkscape:pagecheckerboard="0"
     showgrid="false"
     inkscape:zoom="2.0158577"
     inkscape:cx="315.74649"
     inkscape:cy="134.18606"
     inkscape:window-width="1920"
     inkscape:window-height="1006"
     inkscape:window-x="0"
     inkscape:window-y="0"
     inkscape:window-maximized="1"
     inkscape:current-layer="svg8" /><path
     style="fill:#22537e;fill-opacity:1;fill-rule:nonzero;stroke:none;filter:url(#filter16)"
     d="M1355.88 14.621h-258.15l.43 870.039h-81.04v136.65h257.78V146.422h80.98v-131.8M1719.62.031c-85.36 0-184.06 7.348-282.76 30.84v115.57l273.95.52c94.27 0 119.32 46.969 119.32 80.758 0 36.832-19.17 64.742-113.41 83.801-138.48 26.468-276.96 58.839-276.96 235.171 0 154.27 134.04 217.399 306.4 217.399 85.45 0 139.99-7.27 238.66-30.809v-116.09h-231.3c-97.22 0-122.25-38.179-122.25-70.5 0-36.781 19.17-69.07 113.44-88.191 138.42-26.488 276.85-64.66 276.85-230.781C2021.56 63.211 1893.49.031 1719.62.031M2441.51 0c-247.48 0-338.82 151.352-338.82 382.051 0 230.738 107.46 382.078 356.48 382.078 198.8 0 291.67-114.629 291.67-227.707 0-104.371-44.19-207.262-218.05-207.262h-243.04c5.88-105.762 42.71-182.18 151.76-182.18h257.78V30.89C2599.08 7.353 2516.61 0 2441.51 0m14.67 617.219c-104.62 0-153.15-73.528-163.5-176.367h184.12c70.78 0 97.25 41.168 97.25 85.25 0 46.976-42.71 91.117-117.87 91.117M3018.92 0c-139.94 0-221.01 95.488-221.01 223.41 0 176.309 125.21 224.828 248.94 224.828h185.6v64.621c0 67.571-23.49 104.36-120.71 104.36H2846.5v116.082c98.74 19.129 198.95 30.84 282.92 30.84 178.13 0 279.82-49.961 279.82-243.942v-370.32h88.41V14.672h-250.38l-14.82 83.797h-2.9C3170.63 20.579 3107.3 0 3018.92 0m76.55 336.52c-76.55 0-120.71-32.321-120.71-101.391 0-72 55.9-98.469 117.78-98.469 58.97 0 139.91 39.66 139.91 135.199v64.661h-136.98M1028.03 14.621H675.336v135.301h74.844L685.176 332.52H338.477l-61.079-182.598h73.907v-135.3H0v135.3h88.184l297.129 871.388h256.015L938.43 149.922h89.6v-135.3M510.488 846.73 387.105 477.859l245.833 1.641-116.993 367.23h-5.457M3873.5 481.672c-2.37 0-4.64.258-6.92.816-11.54 2.614-20.58 11.66-23.2 23.184l-127.26 558.668h-302.84c-11.09 0-21.39 5.98-26.79 15.62-5.51 9.63-5.32 21.48.35 30.98l170.73 283.86-233.98 155.91c-9.53 6.36-14.78 17.48-13.5 28.97 1.19 11.32 8.67 21.13 19.41 25.25l321.65 125.39-30.74 219.66c-1.45 10.63 2.65 21.21 10.92 27.99a30.754 30.754 0 0 0 19.65 7.08c3.32 0 6.67-.53 9.92-1.63l347.53-118.67 228.51 140.96a30.344 30.344 0 0 0 16.18 4.65c2.96 0 5.94-.43 8.84-1.29 8.51-2.53 15.41-8.6 19.17-16.6l92.16-198.72 223.15-59.18c15.83-4.25 25.61-20.14 22.2-36.17l-47.43-222.27 156.28-160.65c6.17-6.35 9.34-14.95 8.65-23.74-.68-8.83-5.1-16.85-12.15-22.19l-194.72-146.92 28.85-312.571c1.09-10.75-3.66-21.27-12.42-27.649a31.081 31.081 0 0 0-18.21-5.879c-4.1 0-8.22.797-12.13 2.449l-288.48 122.661-329.39-408.45c-5.91-7.351-14.81-11.519-23.99-11.519M3688.37 1908.95l27.19-194.21c2.05-14.07-5.97-27.74-19.28-32.88l-289.26-112.76 209.27-139.41c13.64-9.1 17.77-27.34 9.27-41.41l-157.83-262.42h273.02c14.42 0 26.85-9.92 30.12-23.91l118.57-520.591 303.91 377.02c6.04 7.422 15.02 11.5 24.2 11.5 4.04 0 8.11-.789 11.99-2.43l262.47-111.66-25.7 278.251a30.478 30.478 0 0 0 12.08 27.34l180.55 136.23-143.47 147.4a30.986 30.986 0 0 0-7.99 27.89l44.77 209.73-208.79 55.34c-8.87 2.41-16.23 8.54-20.13 16.85l-83.57 180.34-211.34-130.37a30.884 30.884 0 0 0-16.2-4.61c-3.34 0-6.7.55-9.94 1.68l-313.91 107.09"
     transform="matrix(.13333 0 0 -.13333 0 268.053)"
     id="path2" /><path
     style="fill:#22537e;fill-opacity:1;fill-rule:nonzero;stroke:none;filter:url(#filter17)"
     d="M4085.1 1226.78c-97.85 0-177.47 79.45-177.47 177.1 0 97.67 79.62 177.05 177.47 177.05 97.88 0 177.47-79.38 177.47-177.05 0-97.65-79.59-177.1-177.47-177.1m0 297.61c-66.65 0-120.85-54.07-120.85-120.51 0-66.49 54.2-120.62 120.85-120.62 66.66 0 120.86 54.13 120.86 120.62 0 66.44-54.2 120.51-120.86 120.51"
     transform="matrix(.13333 0 0 -.13333 0 268.053)"
     id="path4" /><path
     style="fill:#22537e;fill-opacity:1;fill-rule:nonzero;stroke:none;filter:url(#filter38)"
     d="M4167.08 1040.22c-94.07 0-437.1 159.88-451.44 281.62-13.27 112.76 187.01 408.16 313.95 425.01 6.13.81 12.59 1.2 19.34 1.2 85.51 0 216.56-63.05 297.29-144.04 51.53-51.68 78.63-106.26 78.41-157.75-.86-145.51-141.96-383.58-239.7-404.31-5.43-1.16-11.26-1.73-17.85-1.73m-117.5 646.35c-4.24 0-8.25-.26-11.87-.68-90.68-12.12-270.34-275.86-260.81-356.91 7.93-67.37 301.4-227.2 390.18-227.2 2.98 0 4.52.26 5.03.37 51.98 11.03 190.1 209.24 190.81 344.42.25 43.97-32.71 86.27-60.37 114.04-75.16 75.37-191.53 125.96-252.97 125.96"
     transform="matrix(.13333 0 0 -.13333 0 268.053)"
     id="path6" /></svg>
