<?xml version="1.0" encoding="UTF-8" standalone="no"?>
<!-- Generator: Adobe Illustrator 17.0.0, SVG Export Plug-In . SVG Version: 6.00 Build 0)  -->

<svg
   version="1.1"
   id="layer"
   x="0px"
   y="0px"
   width="612px"
   height="124px"
   viewBox="0 332.5 612 124"
   enable-background="new 0 332.5 612 124"
   xml:space="preserve"
   sodipodi:docname="buhler.svg"
   inkscape:version="1.1 (c4e8f9ed74, 2021-05-24)"
   xmlns:inkscape="http://www.inkscape.org/namespaces/inkscape"
   xmlns:sodipodi="http://sodipodi.sourceforge.net/DTD/sodipodi-0.dtd"
   xmlns="http://www.w3.org/2000/svg"
   xmlns:svg="http://www.w3.org/2000/svg"><defs
   id="defs23"><filter
     style="color-interpolation-filters:sRGB;"
     inkscape:label="Greyscale"
     id="filter27"
     x="0"
     y="0"
     width="1"
     height="1"><feColorMatrix
       values="0.21 0.72 0.072 0 0 0.21 0.72 0.072 0 0 0.21 0.72 0.072 0 0 0 0 0 1 0 "
       id="feColorMatrix25" /></filter><filter
     style="color-interpolation-filters:sRGB;"
     inkscape:label="Greyscale"
     id="filter49"
     x="0"
     y="0"
     width="1"
     height="1"><feColorMatrix
       values="0.21 0.72 0.072 0 0 0.21 0.72 0.072 0 0 0.21 0.72 0.072 0 0 0 0 0 1 0 "
       id="feColorMatrix47" /></filter></defs><sodipodi:namedview
   id="namedview21"
   pagecolor="#505050"
   bordercolor="#eeeeee"
   borderopacity="1"
   inkscape:pageshadow="0"
   inkscape:pageopacity="0"
   inkscape:pagecheckerboard="0"
   showgrid="false"
   inkscape:zoom="2.0800654"
   inkscape:cx="306"
   inkscape:cy="61.776905"
   inkscape:window-width="1920"
   inkscape:window-height="1006"
   inkscape:window-x="0"
   inkscape:window-y="0"
   inkscape:window-maximized="1"
   inkscape:current-layer="layer" />
<polygon
   fill="#009B91"
   points="268.079,397.502 271.645,371.407 259.443,371.407 255.876,397.502 "
   id="polygon2"
   style="filter:url(#filter49)" />
<g
   id="g18"
   style="filter:url(#filter27)">
	<path
   fill="#009B91"
   d="M125.967,358.454l471.86-0.094l2.347-16.99H76.5c-35.199,0-61.763,24.405-61.763,54.442   s26.564,54.442,61.763,54.442h33.791l1.783-13.141c-19.242-2.628-33.698-23.091-30.694-43.929   C84.197,373.472,102.313,358.454,125.967,358.454"
   id="path4" />
	<path
   fill="#009B91"
   d="M572.858,371.407h-35.481l-11.076,78.847h20.463l3.567-26.094h7.228l12.859,26.094h22.809l-14.549-28.253   c10.137-3.567,17.365-11.827,18.961-23.748C600.173,380.982,589.754,371.407,572.858,371.407 M577.552,398.253   c-0.939,5.82-4.787,9.48-12.109,9.48h-12.86l2.722-18.961h12.86C575.58,388.772,578.396,392.433,577.552,398.253"
   id="path6" />
	<polygon
   fill="#009B91"
   points="422.674,371.407 402.024,371.407 390.948,450.254 443.888,450.254 446.328,432.42 414.133,432.42     "
   id="polygon8" />
	<polygon
   fill="#009B91"
   points="453.274,450.254 509.687,450.254 512.128,432.42 475.99,432.42 477.961,418.809 510.907,418.809    513.348,401.444 480.401,401.444 482.185,389.148 518.229,389.148 520.669,371.407 464.35,371.407  "
   id="polygon10" />
	<path
   fill="#009B91"
   d="M188.481,371.407H154.69l-11.076,78.847h36.232c16.426,0,27.221-7.791,29.286-22.058   c1.314-8.823-3.098-16.145-10.231-18.585c6.195-2.065,11.639-8.26,12.953-16.708C213.731,378.729,204.907,371.407,188.481,371.407    M189.607,425.755c-0.657,4.506-4.412,7.603-10.137,7.603h-13.892l2.159-15.3h13.892   C187.448,417.964,190.264,420.968,189.607,425.755 M192.048,395.437c-0.657,4.881-4.224,7.228-10.231,7.228H169.99l2.065-14.267   h11.827C189.889,388.303,192.705,390.556,192.048,395.437"
   id="path12" />
	<polygon
   fill="#009B91"
   points="360.442,401.35 333.033,401.35 337.351,371.407 316.607,371.407 305.625,450.254 326.275,450.254    330.593,418.997 358.001,418.997 353.59,450.254 374.334,450.254 385.316,371.407 364.666,371.407  "
   id="polygon14" />
	<path
   fill="#009B91"
   d="M273.053,416.181c-1.502,11.17-7.603,16.99-16.051,16.99c-8.636,0-13.141-5.82-11.545-16.99l6.289-44.867   H231.19l-6.571,46.651c-3.098,21.683,8.823,33.51,29.661,33.51s35.95-11.827,39.048-33.416l6.571-46.745h-20.556L273.053,416.181z"
   id="path16" />
</g>
</svg>
