<?xml version="1.0" encoding="UTF-8" standalone="no"?>
<!-- Generator: Adobe Illustrator 17.0.0, SVG Export Plug-In . SVG Version: 6.00 Build 0)  -->

<svg
   version="1.1"
   id="svg7"
   sodipodi:docname="ferromex.svg"
   x="0px"
   y="0px"
   width="612px"
   height="157px"
   viewBox="0 36.5 612 157"
   enable-background="new 0 36.5 612 157"
   xml:space="preserve"
   inkscape:version="1.1 (c4e8f9ed74, 2021-05-24)"
   xmlns:inkscape="http://www.inkscape.org/namespaces/inkscape"
   xmlns:sodipodi="http://sodipodi.sourceforge.net/DTD/sodipodi-0.dtd"
   xmlns="http://www.w3.org/2000/svg"
   xmlns:svg="http://www.w3.org/2000/svg"><defs
   id="defs7"><filter
     style="color-interpolation-filters:sRGB;"
     inkscape:label="Greyscale"
     id="filter11"
     x="0"
     y="0"
     width="1"
     height="1"><feColorMatrix
       values="0.21 0.72 0.072 0 0 0.21 0.72 0.072 0 0 0.21 0.72 0.072 0 0 0 0 0 1 0 "
       id="feColorMatrix9" /></filter></defs>
<sodipodi:namedview
   guidetolerance="10"
   gridtolerance="10"
   objecttolerance="10"
   borderopacity="1"
   pagecolor="#ffffff"
   bordercolor="#666666"
   id="namedview9"
   inkscape:window-height="1006"
   inkscape:window-width="1920"
   inkscape:pageshadow="2"
   inkscape:pageopacity="0"
   inkscape:pagecheckerboard="0"
   showgrid="false"
   inkscape:zoom="2.0800654"
   inkscape:cx="306"
   inkscape:cy="78.603299"
   inkscape:window-x="0"
   inkscape:window-y="0"
   inkscape:window-maximized="1"
   inkscape:current-layer="svg7">
	</sodipodi:namedview>
<g
   id="Layer1000"
   style="filter:url(#filter11)">
	<path
   id="path2"
   fill="#009035"
   d="M260.587,122.273c-0.105,1.249-0.509,2.154-1.211,2.68c-0.702,0.526-1.469,0.789-2.318,0.789   h-29.939c-0.202,2.417-0.123,4.571,0.217,6.511c0.341,1.924,1.052,3.568,2.131,4.949c1.062,1.381,2.513,2.45,4.339,3.19   c1.843,0.74,4.115,1.102,6.868,1.102c2.164,0,4.1-0.165,5.826-0.51c1.707-0.329,3.21-0.707,4.476-1.134   c1.263-0.411,2.317-0.789,3.141-1.118c0.825-0.345,1.428-0.51,1.844-0.51c0.225,0,0.446,0.049,0.61,0.164   c0.181,0.115,0.305,0.28,0.39,0.51c0.085,0.23,0.145,0.543,0.164,0.937c0.002,0.394-0.005,0.888-0.053,1.463   c-0.036,0.428-0.083,0.789-0.143,1.085c-0.061,0.312-0.117,0.575-0.19,0.822c-0.072,0.247-0.177,0.46-0.315,0.658   c-0.136,0.181-0.309,0.378-0.495,0.543c-0.205,0.181-0.784,0.477-1.735,0.871c-0.934,0.395-2.162,0.789-3.649,1.184   c-1.487,0.378-3.195,0.724-5.126,1.036c-1.929,0.296-3.986,0.46-6.151,0.46c-3.758,0-7.005-0.51-9.745-1.496   c-2.738-1.003-4.987-2.482-6.762-4.439c-1.758-1.956-3.007-4.406-3.747-7.366c-0.721-2.959-0.936-6.395-0.608-10.308   c0.311-3.716,1.112-7.07,2.365-10.045c1.27-2.959,2.936-5.491,5.032-7.563c2.078-2.072,4.513-3.65,7.325-4.768   c2.794-1.102,5.871-1.661,9.213-1.661c3.584,0,6.586,0.543,9.022,1.644c2.42,1.085,4.374,2.565,5.847,4.406   c1.473,1.841,2.469,4.012,3.023,6.494c0.552,2.499,0.712,5.146,0.475,7.974L260.587,122.273z M570.392,101.93h-3.015   l-39.339,44.311h2.669l14.257-15.918l10.073,15.918h11.743l-14.935-23.601L570.392,101.93z M561.597,101.93h-2.948l-11.667,13.027   l-8.244-13.027h-11.743l13.105,20.71l-21.138,23.601h3.294L561.597,101.93z M172.155,145.206l1.955-25.836l-8.905-0.201l0.284-0.58   l1.949-2.404h43.15l-0.22,2.91h-27.305l-1.976,26.112L172.155,145.206z M175.056,106.74l0.011-0.008l1.739-22.977h40.104   l-0.787,8.004h-30.811l-1.1,16.934h26.943l-0.102,1.345H172.42l2.673-3.299L175.056,106.74z M520.822,122.273   c-0.105,1.249-0.509,2.154-1.211,2.68c-0.702,0.526-1.469,0.789-2.318,0.789h-29.939c-0.202,2.417-0.123,4.571,0.217,6.511   c0.341,1.924,1.052,3.568,2.131,4.949c1.062,1.381,2.513,2.45,4.339,3.19c1.843,0.74,4.115,1.102,6.868,1.102   c2.164,0,4.1-0.165,5.826-0.51c1.707-0.329,3.211-0.707,4.476-1.134c1.263-0.411,2.317-0.789,3.141-1.118   c0.825-0.345,1.428-0.51,1.844-0.51c0.225,0,0.446,0.049,0.61,0.164c0.181,0.115,0.305,0.28,0.39,0.51   c0.084,0.23,0.145,0.543,0.164,0.937c0.002,0.394-0.005,0.888-0.053,1.463c-0.036,0.428-0.083,0.789-0.143,1.085   c-0.061,0.312-0.117,0.575-0.19,0.822c-0.072,0.247-0.177,0.46-0.315,0.658c-0.136,0.181-0.308,0.378-0.495,0.543   c-0.206,0.181-0.784,0.477-1.735,0.871c-0.934,0.395-2.162,0.789-3.649,1.184c-1.487,0.378-3.195,0.724-5.126,1.036   c-1.929,0.296-3.986,0.46-6.151,0.46c-3.758,0-7.004-0.51-9.745-1.496c-2.738-1.003-4.987-2.482-6.762-4.439   c-1.758-1.956-3.007-4.406-3.747-7.366c-0.721-2.959-0.936-6.395-0.608-10.308c0.311-3.716,1.112-7.07,2.365-10.045   c1.27-2.959,2.936-5.491,5.032-7.563c2.078-2.072,4.513-3.65,7.325-4.768c2.794-1.102,5.871-1.661,9.213-1.661   c3.584,0,6.586,0.543,9.022,1.644c2.42,1.085,4.374,2.565,5.847,4.406c1.473,1.841,2.469,4.012,3.023,6.494   c0.552,2.499,0.712,5.146,0.475,7.974L520.822,122.273z M512.603,119.921c0.453-4.176-0.241-7.464-2.103-9.832   c-1.844-2.384-4.775-3.568-8.792-3.568c-2.078,0-3.91,0.378-5.531,1.118c-1.619,0.723-3,1.71-4.141,2.926   c-1.158,1.217-2.092,2.647-2.798,4.258c-0.708,1.628-1.178,3.321-1.397,5.096L512.603,119.921z M464.616,145.832   c-0.021,0.247-0.109,0.477-0.244,0.641c-0.154,0.181-0.391,0.329-0.697,0.46c-0.323,0.132-0.746,0.23-1.306,0.296   c-0.542,0.066-1.22,0.099-2.034,0.099c-0.849,0-1.539-0.033-2.07-0.099c-0.531-0.066-0.956-0.164-1.274-0.296   c-0.301-0.132-0.513-0.28-0.637-0.46c-0.125-0.164-0.175-0.394-0.154-0.641l2.207-26.355c0.153-1.825,0.12-3.502-0.084-4.998   c-0.22-1.512-0.647-2.811-1.299-3.913c-0.654-1.085-1.536-1.924-2.631-2.499c-1.095-0.576-2.438-0.871-3.979-0.871   c-1.94,0-3.938,0.707-5.996,2.121c-2.058,1.414-4.378,3.485-6.927,6.215l-2.538,30.301c-0.021,0.247-0.109,0.477-0.261,0.641   c-0.154,0.181-0.391,0.329-0.731,0.46c-0.323,0.132-0.764,0.23-1.306,0.296c-0.56,0.066-1.238,0.099-2.052,0.099   c-0.779,0-1.434-0.033-1.983-0.099c-0.566-0.066-0.991-0.164-1.309-0.296c-0.301-0.132-0.513-0.28-0.62-0.46   c-0.09-0.164-0.14-0.394-0.119-0.641l2.207-26.355c0.153-1.825,0.102-3.502-0.136-4.998c-0.254-1.512-0.699-2.811-1.352-3.913   c-0.654-1.085-1.518-1.924-2.596-2.499c-1.095-0.576-2.403-0.871-3.962-0.871c-1.939,0-3.938,0.707-6.013,2.121   c-2.075,1.414-4.396,3.485-6.91,6.215l-2.538,30.301c-0.021,0.247-0.109,0.477-0.262,0.641c-0.154,0.181-0.391,0.329-0.697,0.46   c-0.323,0.132-0.746,0.23-1.289,0.296c-0.559,0.066-1.255,0.099-2.103,0.099c-0.796,0-1.469-0.033-2.018-0.099   c-0.531-0.066-0.956-0.164-1.257-0.296c-0.318-0.132-0.53-0.28-0.619-0.46c-0.108-0.164-0.157-0.394-0.137-0.641l3.631-43.355   c0.022-0.263,0.092-0.477,0.211-0.658c0.118-0.165,0.34-0.329,0.646-0.477c0.324-0.148,0.712-0.23,1.201-0.279   c0.472-0.049,1.097-0.082,1.877-0.082c0.745,0,1.365,0.033,1.846,0.082c0.481,0.049,0.855,0.132,1.119,0.279   c0.247,0.148,0.442,0.312,0.549,0.477c0.089,0.181,0.141,0.395,0.118,0.658l-0.481,5.738c2.791-2.729,5.453-4.735,7.983-6.001   c2.53-1.266,5.026-1.907,7.484-1.907c1.905,0,3.584,0.214,5.056,0.625c1.471,0.427,2.738,1.003,3.835,1.759   c1.079,0.756,1.991,1.661,2.718,2.696c0.708,1.052,1.303,2.22,1.732,3.502c1.656-1.578,3.205-2.91,4.663-3.995   c1.46-1.102,2.868-1.989,4.189-2.663c1.321-0.674,2.59-1.151,3.828-1.463c1.221-0.313,2.445-0.46,3.657-0.46   c2.944,0,5.379,0.493,7.287,1.479c1.91,0.97,3.41,2.285,4.521,3.913c1.092,1.644,1.814,3.568,2.15,5.755   c0.335,2.203,0.401,4.521,0.195,6.971L464.616,145.832z M386.423,123.67c-0.296,3.535-1.053,6.79-2.288,9.75   c-1.219,2.976-2.905,5.54-5.025,7.694c-2.12,2.154-4.701,3.831-7.728,5.031c-3.027,1.2-6.472,1.809-10.316,1.809   c-3.758,0-6.985-0.543-9.684-1.595c-2.7-1.052-4.908-2.598-6.591-4.62c-1.683-2.022-2.862-4.488-3.537-7.382   c-0.677-2.877-0.852-6.165-0.546-9.815c0.296-3.535,1.053-6.79,2.254-9.749c1.219-2.976,2.888-5.54,5.008-7.694   c2.12-2.154,4.7-3.815,7.708-4.998c3.01-1.2,6.453-1.792,10.332-1.792c3.757,0,6.986,0.526,9.685,1.595   c2.699,1.052,4.908,2.598,6.591,4.62c1.701,2.022,2.88,4.488,3.574,7.365C386.549,116.781,386.727,120.037,386.423,123.67   L386.423,123.67z M377.565,124.196c0.195-2.335,0.139-4.554-0.136-6.642c-0.276-2.088-0.884-3.913-1.791-5.491   c-0.924-1.578-2.241-2.811-3.947-3.732c-1.724-0.921-3.919-1.381-6.586-1.381c-2.476,0-4.625,0.427-6.478,1.266   c-1.835,0.822-3.406,2.006-4.677,3.535c-1.288,1.529-2.288,3.337-3.017,5.425c-0.729,2.088-1.196,4.357-1.404,6.84   c-0.198,2.367-0.16,4.604,0.115,6.691c0.275,2.088,0.885,3.913,1.829,5.458c0.925,1.562,2.259,2.795,3.966,3.716   c1.724,0.921,3.92,1.365,6.587,1.365c2.442,0,4.588-0.411,6.442-1.25c1.871-0.838,3.44-2.006,4.71-3.518   c1.285-1.496,2.286-3.305,2.997-5.393C376.886,128.997,377.354,126.712,377.565,124.196L377.565,124.196z M337.641,105.322   c-0.06,0.707-0.126,1.299-0.201,1.776c-0.076,0.493-0.177,0.871-0.285,1.134c-0.128,0.28-0.283,0.477-0.434,0.625   c-0.168,0.148-0.381,0.214-0.658,0.214c-0.277,0-0.601-0.066-0.969-0.214c-0.385-0.148-0.808-0.279-1.28-0.427   c-0.49-0.148-1.016-0.279-1.611-0.411c-0.612-0.132-1.265-0.197-1.975-0.197c-0.848,0-1.676,0.164-2.517,0.493   c-0.84,0.313-1.75,0.839-2.695,1.578c-0.962,0.74-1.98,1.726-3.069,2.943c-1.072,1.217-2.288,2.713-3.613,4.472l-2.389,28.525   c-0.021,0.247-0.109,0.477-0.262,0.641c-0.154,0.181-0.391,0.329-0.697,0.46c-0.323,0.132-0.746,0.23-1.289,0.296   c-0.559,0.066-1.255,0.099-2.103,0.099c-0.796,0-1.469-0.033-2.018-0.099c-0.531-0.066-0.956-0.164-1.257-0.296   c-0.318-0.132-0.53-0.28-0.619-0.46c-0.108-0.164-0.157-0.394-0.137-0.641l3.631-43.355c0.022-0.263,0.092-0.477,0.211-0.658   c0.118-0.165,0.34-0.329,0.646-0.477c0.324-0.148,0.712-0.23,1.201-0.279c0.472-0.049,1.097-0.082,1.877-0.082   c0.745,0,1.365,0.033,1.846,0.082c0.481,0.049,0.855,0.132,1.119,0.279c0.247,0.148,0.441,0.312,0.549,0.477   c0.089,0.181,0.141,0.395,0.119,0.658l-0.529,6.313c1.393-1.743,2.689-3.157,3.87-4.242c1.199-1.085,2.311-1.956,3.35-2.581   c1.022-0.625,2.028-1.052,3.018-1.299c0.989-0.23,1.97-0.362,2.939-0.362c0.451,0,0.95,0.033,1.5,0.082   c0.55,0.049,1.132,0.132,1.727,0.263c0.595,0.131,1.138,0.263,1.609,0.427c0.488,0.164,0.821,0.329,0.999,0.477   c0.194,0.165,0.32,0.312,0.377,0.46c0.057,0.148,0.094,0.329,0.126,0.559c0.033,0.23,0.04,0.559,0.021,0.986   C337.752,103.99,337.703,104.582,337.641,105.322L337.641,105.322z M301.417,105.322c-0.06,0.707-0.126,1.299-0.201,1.776   c-0.076,0.493-0.177,0.871-0.285,1.134c-0.128,0.28-0.283,0.477-0.434,0.625c-0.168,0.148-0.381,0.214-0.658,0.214   c-0.277,0-0.601-0.066-0.969-0.214c-0.386-0.148-0.808-0.279-1.28-0.427c-0.49-0.148-1.016-0.279-1.611-0.411   c-0.612-0.132-1.265-0.197-1.975-0.197c-0.848,0-1.676,0.164-2.517,0.493c-0.84,0.313-1.75,0.839-2.695,1.578   c-0.962,0.74-1.98,1.726-3.069,2.943c-1.072,1.217-2.288,2.713-3.612,4.472l-2.389,28.525c-0.021,0.247-0.109,0.477-0.261,0.641   c-0.154,0.181-0.391,0.329-0.697,0.46c-0.323,0.132-0.746,0.23-1.289,0.296c-0.559,0.066-1.255,0.099-2.103,0.099   c-0.796,0-1.469-0.033-2.018-0.099c-0.531-0.066-0.956-0.164-1.257-0.296c-0.318-0.132-0.53-0.28-0.619-0.46   c-0.108-0.164-0.157-0.394-0.137-0.641l3.631-43.355c0.022-0.263,0.092-0.477,0.211-0.658c0.118-0.165,0.34-0.329,0.646-0.477   c0.324-0.148,0.712-0.23,1.201-0.279c0.472-0.049,1.097-0.082,1.877-0.082c0.745,0,1.365,0.033,1.846,0.082   c0.481,0.049,0.855,0.132,1.119,0.279c0.247,0.148,0.441,0.312,0.549,0.477c0.089,0.181,0.141,0.395,0.119,0.658l-0.529,6.313   c1.393-1.743,2.689-3.157,3.87-4.242c1.199-1.085,2.311-1.956,3.35-2.581c1.022-0.625,2.028-1.052,3.018-1.299   c0.988-0.23,1.969-0.362,2.939-0.362c0.451,0,0.95,0.033,1.5,0.082c0.55,0.049,1.132,0.132,1.727,0.263   c0.595,0.131,1.138,0.263,1.609,0.427c0.488,0.164,0.821,0.329,0.999,0.477c0.194,0.165,0.32,0.312,0.377,0.46   c0.057,0.148,0.094,0.329,0.126,0.559c0.033,0.23,0.04,0.559,0.021,0.986C301.528,103.99,301.478,104.582,301.417,105.322z    M252.368,119.921c0.454-4.176-0.24-7.464-2.103-9.832c-1.844-2.384-4.775-3.568-8.792-3.568c-2.078,0-3.911,0.378-5.531,1.118   c-1.619,0.723-3,1.71-4.141,2.926c-1.158,1.217-2.092,2.647-2.798,4.258c-0.708,1.628-1.178,3.321-1.397,5.096H252.368z" />
	<path
   id="path4"
   fill="#E30016"
   d="M17.415,122.877c-0.228-2.311-0.347-4.653-0.347-7.023l0.002-0.282h26.794   c-5.402,2.227-9.72,4.721-12.814,7.306H17.415z M87.934,44.988c10.767,0,20.971,2.407,30.111,6.705H57.823   C66.963,47.395,77.167,44.988,87.934,44.988z M130.138,58.927c7.138,5.301,13.244,11.912,17.964,19.478   c-18.521,1.751-28.716,0.437-28.622-5.634c-0.421-1.969,3.658-6.522,6.314-9.595c1.119-1.064,0.782-1.551,0.507-1.537   c-4.774,1.476-8.328,2.809-11.453,4.376H37.565c2.536-2.563,5.264-4.933,8.165-7.087L130.138,58.927z M154.045,90.29   c1.828,4.721,3.165,9.687,3.948,14.835c-19.938-1.235-40.812,2.704-61.124,0.597c-14.311-1.611-17.354-6.334-12.524-11.93   c1.225-1.715,4.95-5.033,5.198-5.972c-3.647,0.094-10.707,2.754-16.589,6.562h-52.57c0.761-2.396,1.645-4.736,2.647-7.013h66.635   l6.486-6.997H26.583c1.433-2.473,3.012-4.852,4.724-7.123h72.875C89.432,86.891,114.809,97.236,154.045,90.29z M158.405,123.355   c-0.815,7.745-2.879,15.117-5.985,21.914c-11.65-7.382-33.388-8.676-51.738-9.861c-11.193-1.208-29.023-1.368-41.522-3.417   c-12.558-2.059-19.735-6.035-9.36-15.838c3.01-3.655,4.584-4.993,6.816-7.481H17.43c0.241-2.389,0.6-4.743,1.072-7.056h46.487   c-2.649,3.952-2.589,8.162,3.005,11.76C84.339,125.308,131.839,116.05,158.405,123.355z M106.842,184.163   c-6.02,1.664-12.36,2.557-18.908,2.557c-34.248,0-62.829-24.308-69.43-56.608h7.236c-1.734,6.378,4.728,12.32,21.563,15.219   C90.074,149.761,112.116,158.075,106.842,184.163z" />
</g>
</svg>
