<svg xmlns="http://www.w3.org/2000/svg" height="422.213" width="365.333" xml:space="preserve"><path style="fill:#f04c20;fill-opacity:1;fill-rule:nonzero;stroke:none" d="M2501.44 816.82H967.684V559.711H2501.44V816.82" transform="matrix(.13333 0 0 -.13333 0 422.213)"/><path style="fill:#fff;fill-opacity:1;fill-rule:nonzero;stroke:none" d="m149.375 3.66-5.945 16.942C136.574 8.692 121.012 0 102.715 0c-37.516 0-58.11 23.352-58.11 64.082v177.547c0 40.691 23.317 64.043 62.692 64.043 39.332 0 62.223-23.352 62.223-64.043v-33.91h-39.348v31.601c0 21.039-8.246 30.672-22.875 30.672-14.649 0-23.352-9.633-23.352-30.672V66.371c0-21.082 8.25-30.21 22.899-30.21 14.64 0 23.328 9.128 23.328 30.21v55.348h-23.328v34.32h62.676V3.66h-20.145M197.438 3.66v298.32h97.917v-36.128h-58.55v-90.133h51.679v-36.61h-51.679V38.891h58.55V3.66h-97.917M387.781 265.852V3.66h-39.336v262.192H305.43v36.128h125.375v-36.128h-43.024M520.934 265.852V3.66h-39.34v262.192h-43.008v36.128h125.375v-36.128h-43.027M578.141 301.98h39.351V3.691h-39.351V301.98M744.242 3.66l-60.39 224.199h-.918s5.031-35.23 5.031-64.05V3.66h-36.152v298.32h43.917l60.411-224.171h.922s-4.571 36.601-4.571 64.023V301.98h36.137V3.66h-44.387M923.156 3.66l-5.945 16.942C910.367 8.692 894.801 0 876.5 0c-37.523 0-58.113 23.352-58.113 64.082v177.547c0 40.691 23.324 64.043 62.683 64.043 39.344 0 62.215-23.352 62.215-64.043v-33.91h-39.34v31.601c0 21.039-8.242 30.672-22.875 30.672-14.648 0-23.351-9.633-23.351-30.672V66.371c0-21.082 8.25-30.21 22.906-30.21 14.641 0 23.32 9.128 23.32 30.21v55.348h-23.32v34.32h62.66V3.66h-20.129M1099.78 265.852V3.66h-39.33v262.192h-43.03v36.128h125.38v-36.128h-43.02M1247.58 3.66V140.95h-51.24V3.66h-39.36v298.32h39.36V177.082h51.24V301.98h39.36V3.66h-39.36M1321.25 301.98h39.37V3.691h-39.37V301.98M1487.34 3.66l-60.38 224.199h-.92s5.05-35.23 5.05-64.05V3.66h-36.17v298.32h43.92l60.41-224.171h.93s-4.58 36.601-4.58 64.023V301.98h36.15V3.66h-44.41M1666.27 3.66l-5.94 16.942C1653.47 8.692 1637.92 0 1619.59 0c-37.5 0-58.07 23.352-58.07 64.082v177.547c0 40.691 23.3 64.043 62.65 64.043 39.36 0 62.23-23.352 62.23-64.043v-33.91h-39.36v31.601c0 21.039-8.2 30.672-22.87 30.672-14.63 0-23.33-9.633-23.33-30.672V66.371c0-21.082 8.26-30.21 22.89-30.21 14.65 0 23.31 9.128 23.31 30.21v55.348h-23.31v34.32h62.67V3.66h-20.13M1766.96 0c-38.45 0-64.06 22.422-64.06 64.082v33.84h38.9V66.32c0-21.03 11.43-30.629 25.16-30.629 18.28 0 27.44 11.891 27.44 34.29 0 18.808-3.64 31.14-18.28 46.718l-44.4 48.031c-21.05 22.43-27 41.641-27 70.899 0 40.269 19.21 70.043 63.61 70.043 40.27 0 63.12-23.352 63.12-64.043v-33.91h-38.87v31.601c0 21.039-9.63 30.66-24.25 30.66-16.49 0-24.72-13.75-24.72-34.351 0-18.731 3.67-31.09 18.3-46.668l44.4-48.012c21.05-22.449 26.97-41.66 26.97-70.969 0-40.242-21.95-69.98-66.32-69.98M2012.2 235.172c0 18.789-7.77 30.68-24.23 30.68h-25.17V38.898h25.17c16.46 0 24.23 11.91 24.23 30.66zM1987.97 3.66h-64.52v298.32h64.52c45.3 0 63.57-25.601 63.57-64.98V68.648c0-39.359-18.27-64.988-63.57-64.988M2165.48 239.32c0 21.039-10.04 30.66-24.69 30.66-14.65 0-24.72-9.621-24.72-30.66V66.371c0-21.082 10.07-30.68 24.72-30.68 14.65 0 24.69 9.598 24.69 30.68zM2140.79 0c-39.36 0-64.05 23.352-64.05 64.082v177.52c0 40.718 24.69 64.07 64.05 64.07 39.34 0 64.07-23.352 64.07-64.07V64.082c0-40.73-24.73-64.082-64.07-64.082M2327.03 3.66l-60.39 224.199h-.91s5.02-35.23 5.02-64.05V3.66h-36.14v298.32h43.89l60.43-224.171h.91s-4.57 36.601-4.57 64.023V301.98h36.16V3.66h-44.4M2403.77 3.68v298.308h97.94v-36.129h-58.56V175.73h51.7v-36.609h-51.7V38.898h58.56V3.68h-97.94" transform="matrix(.13333 0 0 -.13333 0 422.213)"/><path style="fill:#f14b1f;fill-opacity:1;fill-rule:nonzero;stroke:none" d="M2501.71 817.398H967.949V560.262H2501.71v257.136" transform="matrix(.13333 0 0 -.13333 0 422.213)"/><path style="fill:#fff;fill-opacity:1;fill-rule:nonzero;stroke:none" d="M1088.94 1484.64v901.54H967.949v245.03h120.991v369.06h257.15v-369.06h211.78v-245.03h-211.78v-871.24c0-142.16 54.49-211.74 211.78-199.69V1073.2c-335.82-27.11-468.93 148.3-468.93 411.44M2244.56 2216.75c0 139.16-63.52 205.74-160.37 205.74-96.76 0-160.29-66.58-160.29-205.74v-728.99c0-139.19 63.53-205.76 160.29-205.76 96.85 0 160.37 66.57 160.37 205.76zm9.05-1143.55v102.9c-30.27-78.64-133.1-127-226.87-127-245.03 0-360.03 151.2-360.03 423.5v759.33c0 272.21 115 423.46 360.03 423.46 87.75 0 190.58-51.39 217.82-120.99v632.25h257.13V1073.2h-248.08M577.781 2216.78c0 139.14-63.515 205.69-160.32 205.69-96.793 0-160.344-66.55-160.344-205.69v-729.02c0-139.15 63.551-205.7 160.344-205.7 96.805 0 160.32 66.55 160.32 205.7zM420.484 483.5c-260.14 0-414.445 154.25-414.445 423.48v42.36h257.133v-27.25c0-139.129 60.516-205.699 157.312-205.699 96.786 0 157.297 66.57 157.297 205.699v248.06c-27.207-69.58-130.07-121-217.785-121C114.965 1049.15 0 1200.38 0 1472.64v759.27c0 272.23 114.965 423.48 359.996 423.48 93.758 0 196.625-48.39 226.875-127.04v102.85h248.07V906.98c0-269.23-154.304-423.48-414.457-423.48M2670.26 3092.52c-3.17 7.55-13.13 8.22-20.19 8.22h-24.3v-29.38h23.34c11.6 0 22.36 3.21 22.36 17.02 0 1.23-.72 3.21-1.21 4.14zm2.69-80.59c-3.16 4.9-2.9 14.04-3.16 19.64-.77 17.05-4.15 22.84-22.36 22.84h-21.66v-42.48h-18.17v106.09h45.65c18.74 0 36.43-7.06 36.43-28.86 0-13.13-6.57-22.58-19.63-25.78v-.53c14.59-4.11 16.94-12.58 17.68-26.39.19-7.05-.21-18.25 3.37-24.53zm-25.68 128.19c-41.34 0-73.43-33.53-73.43-74.28 0-40.77 32.23-74.36 73.43-74.36 40.99 0 73.25 33.59 73.25 74.36 0 40.75-32.26 74.28-73.25 74.28zm.16-167.05c-51.25 0-92.95 41.29-92.95 92.77 0 51.46 41.7 92.75 92.95 92.75 51.21 0 92.57-41.77 92.57-92.75 0-51.08-41.63-92.77-92.57-92.77" transform="matrix(.13333 0 0 -.13333 0 422.213)"/></svg>