<?xml version="1.0" encoding="UTF-8" standalone="no"?>
<!-- Generator: Adobe Illustrator 17.0.0, SVG Export Plug-In . SVG Version: 6.00 Build 0)  -->

<svg
   version="1.1"
   id="svg4013"
   x="0px"
   y="0px"
   width="705.5px"
   height="132px"
   viewBox="0 0 705.5 132"
   enable-background="new 0 0 705.5 132"
   xml:space="preserve"
   sodipodi:docname="maersk.svg"
   inkscape:version="1.1 (c4e8f9ed74, 2021-05-24)"
   xmlns:inkscape="http://www.inkscape.org/namespaces/inkscape"
   xmlns:sodipodi="http://sodipodi.sourceforge.net/DTD/sodipodi-0.dtd"
   xmlns="http://www.w3.org/2000/svg"
   xmlns:svg="http://www.w3.org/2000/svg"><defs
   id="defs13"><filter
     style="color-interpolation-filters:sRGB;"
     inkscape:label="Greyscale"
     id="filter17"
     x="0"
     y="0"
     width="1"
     height="1"><feColorMatrix
       values="0.21 0.72 0.072 0 0 0.21 0.72 0.072 0 0 0.21 0.72 0.072 0 0 0 0 0 1 0 "
       id="feColorMatrix15" /></filter><filter
     style="color-interpolation-filters:sRGB;"
     inkscape:label="Greyscale"
     id="filter21"
     x="0"
     y="0"
     width="1"
     height="1"><feColorMatrix
       values="0.21 0.72 0.072 0 0 0.21 0.72 0.072 0 0 0.21 0.72 0.072 0 0 0 0 0 1 0 "
       id="feColorMatrix19" /></filter><filter
     style="color-interpolation-filters:sRGB;"
     inkscape:label="Greyscale"
     id="filter25"
     x="0"
     y="0"
     width="1"
     height="1"><feColorMatrix
       values="0.21 0.72 0.072 0 0 0.21 0.72 0.072 0 0 0.21 0.72 0.072 0 0 0 0 0 1 0 "
       id="feColorMatrix23" /></filter><filter
     style="color-interpolation-filters:sRGB;"
     inkscape:label="Greyscale"
     id="filter29"
     x="0"
     y="0"
     width="1"
     height="1"><feColorMatrix
       values="0.21 0.72 0.072 0 0 0.21 0.72 0.072 0 0 0.21 0.72 0.072 0 0 0 0 0 1 0 "
       id="feColorMatrix27" /></filter><filter
     style="color-interpolation-filters:sRGB;"
     inkscape:label="Greyscale"
     id="filter33"
     x="0"
     y="0"
     width="1"
     height="1"><feColorMatrix
       values="0.21 0.72 0.072 0 0 0.21 0.72 0.072 0 0 0.21 0.72 0.072 0 0 0 0 0 1 0 "
       id="feColorMatrix31" /></filter><filter
     style="color-interpolation-filters:sRGB;"
     inkscape:label="Greyscale"
     id="filter37"
     x="0"
     y="0"
     width="1"
     height="1"><feColorMatrix
       values="0.21 0.72 0.072 0 0 0.21 0.72 0.072 0 0 0.21 0.72 0.072 0 0 0 0 0 1 0 "
       id="feColorMatrix35" /></filter><filter
     style="color-interpolation-filters:sRGB;"
     inkscape:label="Greyscale"
     id="filter41"
     x="0"
     y="0"
     width="1"
     height="1"><feColorMatrix
       values="0.21 0.72 0.072 0 0 0.21 0.72 0.072 0 0 0.21 0.72 0.072 0 0 0 0 0 1 0 "
       id="feColorMatrix39" /></filter><filter
     style="color-interpolation-filters:sRGB;"
     inkscape:label="Greyscale"
     id="filter45"
     x="0"
     y="0"
     width="1"
     height="1"><feColorMatrix
       values="0.21 0.72 0.072 0 0 0.21 0.72 0.072 0 0 0.21 0.72 0.072 0 0 0 0 0 1 0 "
       id="feColorMatrix43" /></filter></defs><sodipodi:namedview
   id="namedview11"
   pagecolor="#505050"
   bordercolor="#eeeeee"
   borderopacity="1"
   inkscape:pageshadow="0"
   inkscape:pageopacity="0"
   inkscape:pagecheckerboard="0"
   showgrid="false"
   inkscape:zoom="1.804394"
   inkscape:cx="352.75"
   inkscape:cy="66.227219"
   inkscape:window-width="1920"
   inkscape:window-height="1006"
   inkscape:window-x="0"
   inkscape:window-y="0"
   inkscape:window-maximized="1"
   inkscape:current-layer="svg4013" />
<path
   id="path3317"
   fill="#231F20"
   d="M167.445,102.683V27.966h19.851l25.187,55.421l24.825-55.421h19.017v74.717h-16.361V59.902  l-18.899,42.781h-17.495l-19.156-42.524v42.524H167.445L167.445,102.683"
   style="filter:url(#filter29)" />
<path
   id="path3319"
   fill="#231F20"
   d="M283.285,102.683H264.02l33.104-74.717h23.758l33.357,74.717h-19.038l-6.557-14.978  l-39.004,0.147L283.285,102.683L283.285,102.683z M322.522,73.753L308.93,42.898l-13.213,30.855H322.522L322.522,73.753"
   style="filter:url(#filter17)" />
<path
   id="path3321"
   fill="#231F20"
   d="M361.731,102.683V27.966h71.338v14.932h-54.068v14.951h46.352V72.69h-46.352v15.015h54.068  v14.978H361.731L361.731,102.683"
   style="filter:url(#filter33)" />
<path
   id="path3323"
   fill="#231F20"
   d="M447.571,102.683V27.966h61.058c0,0.009,3.975-0.412,8.103,3.621  c3.763,3.621,3.122,8.937,3.122,8.937v25.098c0,0.009,0.753,4.602-3.656,8.525c-4.264,3.804-10.42,2.997-10.42,2.997l14.24,25.538  h-18.72l-14.062-25.538h-22.161v25.538H447.571L447.571,102.683z M465.077,62.212h37.436V42.898h-37.436V62.212"
   style="filter:url(#filter37)" />
<path
   id="path3325"
   fill="#231F20"
   d="M551.419,102.683h-5.876c0,0-5.21-0.101-8.154-3.208c-3.423-3.612-3.344-7.755-3.344-7.755  v-9.762h17.373v5.784h36.888V72.662h-42.292c0,0.009-5.217,0.55-8.408-2.759c-3.588-3.667-3.229-8.085-3.229-8.085V39.433  c0,0-0.043-3.786,2.517-7.122c3.602-4.831,9.242-4.354,9.242-4.354l48.372,0.037c0,0,3.928-0.266,7.798,3.474  c4.215,4.079,3.262,8.442,3.262,8.442v8.91h-17.263v-5.922h-36.888v14.96h42.217c0,0.009,4.941-0.357,8.414,3.602  c3.52,3.978,3.52,8.442,3.52,8.442v21.065c0,0.009,0.523,4.152-2.778,7.92c-3.753,4.272-8.819,3.795-8.819,3.795H551.419  L551.419,102.683"
   style="filter:url(#filter41)" />
<path
   id="path3327"
   fill="#231F20"
   d="M620.068,102.683V27.966h17.707v29.883l33.705-29.883h23.977L655.209,62.68l41.723,40.003  h-24.829l-34.328-34.017v34.017H620.068L620.068,102.683"
   style="filter:url(#filter45)" />
<path
   id="path3337"
   fill="#4CBCD0"
   d="M123.059,113.949c0,7.572-6.133,13.704-13.707,13.704H18.682  c-7.57,0-13.703-6.132-13.703-13.704v-97.12c0-7.562,6.133-13.704,13.703-13.704h90.671c7.573,0,13.707,6.142,13.707,13.704V113.949  "
   style="filter:url(#filter21)" />
<path
   id="path3339"
   fill="#FFFFFF"
   d="M64.117,11.246c-0.049,0-0.093,0.028-0.104,0.082c0,0-8.504,35.896-8.565,36.162  c-0.243-0.11-33.565-15.959-33.565-15.959c-0.047-0.018-0.1-0.009-0.132,0.027c-0.015,0.028-0.026,0.046-0.026,0.064  c0,0.037,0.011,0.055,0.026,0.083c0,0,22.766,29.021,22.934,29.241c-0.243,0.11-33.404,16.491-33.404,16.491  c-0.039,0.018-0.065,0.055-0.065,0.101c0,0.009,0,0.009,0.004,0.027c0.018,0.046,0.054,0.082,0.108,0.082c0,0,36.888,0,37.163,0  c-0.061,0.266-8.092,36.364-8.092,36.364c0,0.018,0,0.018,0,0.037c0,0.037,0.022,0.073,0.065,0.092s0.096,0.018,0.132-0.027  c0,0.009,23.239-28.655,23.407-28.866c0.169,0.211,23.314,28.939,23.314,28.939c0.032,0.037,0.086,0.055,0.136,0.027  c0.036-0.018,0.058-0.055,0.058-0.092c0-0.009,0-0.018,0-0.027c0,0.009-7.914-36.181-7.978-36.446c0.276,0,37.168,0,37.168,0  c0.053,0,0.096-0.037,0.107-0.082c0.004-0.018,0.004-0.018,0.004-0.027c0-0.046-0.022-0.083-0.065-0.101  c0,0-33.107-16.317-33.35-16.436c0.168-0.211,23.027-29.168,23.027-29.168c0.014-0.018,0.025-0.046,0.025-0.064  c0-0.027-0.011-0.055-0.025-0.073c-0.029-0.037-0.09-0.055-0.133-0.037c0,0.009-33.368,15.739-33.616,15.858  c-0.064-0.266-8.45-36.19-8.45-36.19c-0.015-0.055-0.054-0.082-0.104-0.082H64.117"
   style="filter:url(#filter25)" />
</svg>
