<?xml version="1.0" encoding="UTF-8" standalone="no"?>
<!-- Generator: Adobe Illustrator 17.0.0, SVG Export Plug-In . SVG Version: 6.00 Build 0)  -->

<svg
   version="1.1"
   id="layer"
   x="0px"
   y="0px"
   width="612px"
   height="206px"
   viewBox="0 294.5 612 206"
   enable-background="new 0 294.5 612 206"
   xml:space="preserve"
   sodipodi:docname="oxiteno.svg"
   inkscape:version="1.1 (c4e8f9ed74, 2021-05-24)"
   xmlns:inkscape="http://www.inkscape.org/namespaces/inkscape"
   xmlns:sodipodi="http://sodipodi.sourceforge.net/DTD/sodipodi-0.dtd"
   xmlns="http://www.w3.org/2000/svg"
   xmlns:svg="http://www.w3.org/2000/svg"><defs
   id="defs15"><filter
     style="color-interpolation-filters:sRGB;"
     inkscape:label="Greyscale"
     id="filter19"
     x="0"
     y="0"
     width="1"
     height="1"><feColorMatrix
       values="0.21 0.72 0.072 0 0 0.21 0.72 0.072 0 0 0.21 0.72 0.072 0 0 0 0 0 1 0 "
       id="feColorMatrix17" /></filter></defs><sodipodi:namedview
   id="namedview13"
   pagecolor="#505050"
   bordercolor="#eeeeee"
   borderopacity="1"
   inkscape:pageshadow="0"
   inkscape:pageopacity="0"
   inkscape:pagecheckerboard="0"
   showgrid="false"
   inkscape:zoom="2.0800654"
   inkscape:cx="306"
   inkscape:cy="103.12176"
   inkscape:window-width="1920"
   inkscape:window-height="1006"
   inkscape:window-x="0"
   inkscape:window-y="0"
   inkscape:window-maximized="1"
   inkscape:current-layer="layer" />
<g
   id="g10"
   style="filter:url(#filter19)">
	<path
   fill="#00265D"
   d="M335.192,404.729c1.408-1.408,3.848-1.408,5.256,0.094l12.672,12.39c1.502,1.502,1.502,3.848,0.094,5.256   l-0.939,0.939c-1.408,1.408-3.755,1.408-5.256-0.094l-12.672-12.39c-1.502-1.502-1.502-3.848-0.094-5.256L335.192,404.729z    M499.08,420.593c0,2.065-1.502,3.755-3.379,3.755h-1.126c-1.877,0-3.473-1.69-3.473-3.755v-42.615   c0-8.448,7.791-8.26,10.888-3.661c0,0,19.899,32.102,21.871,35.481c-0.188-3.473,0-35.012,0-35.012   c0-2.065,1.408-3.755,3.379-3.755h1.126c1.877,0,3.473,1.69,3.473,3.755v43.741c0,7.415-7.415,6.852-9.95,3.004   c0,0-20.463-33.228-22.715-37.171C499.08,386.801,499.08,420.593,499.08,420.593 M417.136,420.499c0,2.065-1.596,3.755-3.567,3.755   h-1.22c-1.971,0-3.567-1.69-3.567-3.755v-41.676h-12.859c-1.783,0-3.191-1.502-3.191-3.379v-1.033c0-1.877,1.408-3.379,3.191-3.379   h34.167c1.783,0,3.191,1.502,3.191,3.379v1.126c0,1.877-1.408,3.379-3.191,3.379H417.23v41.582H417.136z M374.897,371.032   c1.971,0,3.661,1.69,3.661,3.755v45.806c0,2.065-1.596,3.755-3.661,3.755h-1.22c-1.971,0-3.567-1.69-3.567-3.755v-45.806   c0-2.065,1.596-3.755,3.567-3.755H374.897z M473.455,415.899c1.783,0,3.191,1.502,3.191,3.285v1.126   c0,1.783-1.408,3.285-3.191,3.285h-24.123c-1.971,0-3.567-1.69-3.567-3.755V374.88c0-2.065,1.596-3.755,3.567-3.755h23.091   c1.783,0,3.191,1.502,3.191,3.285v1.033c0,1.783-1.408,3.285-3.191,3.285h-18.116v14.549h16.896c1.69,0,3.191,1.502,3.191,3.285   v1.126c0,1.877-1.408,3.285-3.191,3.285h-16.896v14.831h19.148V415.899z M264.136,369.718c15.394,0,27.972,12.484,27.972,27.878   c0,15.394-12.484,27.878-27.878,27.878c-15.394,0-27.878-12.484-27.878-27.878C236.258,382.202,248.742,369.718,264.136,369.718    M264.136,378.353c-10.607,0-19.242,8.636-19.242,19.242c0,10.607,8.636,19.242,19.242,19.242c10.607,0,19.242-8.636,19.242-19.242   C283.472,386.989,274.837,378.353,264.136,378.353 M571.356,369.718c15.394,0,27.878,12.484,27.878,27.878   c0,15.394-12.484,27.878-27.878,27.878c-15.394,0-27.878-12.484-27.878-27.878C543.385,382.202,555.869,369.718,571.356,369.718    M571.356,378.353c-10.607,0-19.242,8.636-19.242,19.242c0,10.607,8.636,19.242,19.242,19.242s19.242-8.636,19.242-19.242   S581.963,378.353,571.356,378.353 M302.433,371.877c1.408-1.408,3.755-1.408,5.256,0.094l22.246,22.152   c1.877,1.877,1.877,5.256,0,7.134l-22.246,22.058c-1.502,1.502-3.848,1.502-5.256,0.094l-0.939-0.939   c-1.408-1.408-1.408-3.755,0.094-5.256l19.618-19.618l-19.618-19.618c-1.502-1.502-1.502-3.848-0.094-5.256L302.433,371.877z    M334.066,389.899c-1.408-1.408-1.408-3.755,0.094-5.256l12.39-12.672c1.502-1.502,3.848-1.502,5.256-0.094l0.939,0.845   c1.408,1.408,1.408,3.848-0.094,5.256l-12.39,12.672c-1.502,1.502-3.848,1.502-5.256,0.094L334.066,389.899z"
   id="path2" />
	<path
   fill="#9DC815"
   d="M206.879,390.837l-88.515-88.515c-3.661-3.661-9.574-3.661-13.235,0l-88.515,88.515   c-3.661,3.661-3.661,9.574,0,13.235l88.515,88.609c3.661,3.661,9.574,3.661,13.235,0l88.515-88.515   C210.539,400.412,210.539,394.498,206.879,390.837"
   id="path4" />
	<path
   fill="#FFFFFF"
   d="M162.387,364.18c-1.971-1.971-5.163-1.971-7.134,0l-1.033,1.033c-1.971,1.971-1.971,5.163,0,7.134   l24.78,24.78c0.282,0.188,0.282,0.563,0,0.845l-24.78,24.78c-1.971,1.971-1.971,5.163,0,7.134l1.033,1.033   c1.971,1.971,5.163,1.971,7.134,0l28.253-28.253c2.816-2.816,2.816-7.321,0-10.137L162.387,364.18z"
   id="path6" />
	<path
   fill="#FFFFFF"
   d="M129.064,414.773c-9.574,9.574-25.062,9.574-34.636,0s-9.574-25.062,0-34.636   c9.574-9.574,25.062-9.574,34.636,0C138.639,389.711,138.639,405.199,129.064,414.773 M86.356,372.064   c-14.08,14.08-14.08,36.795,0,50.875c14.08,14.08,36.889,14.08,50.875,0c14.08-14.08,14.08-36.795,0-50.875   C123.151,357.985,100.342,357.985,86.356,372.064"
   id="path8" />
</g>
</svg>
