<?xml version="1.0" encoding="UTF-8" standalone="no"?>
<!-- Generator: Adobe Illustrator 17.0.0, SVG Export Plug-In . SVG Version: 6.00 Build 0)  -->

<svg
   version="1.1"
   id="svg2"
   inkscape:version="1.1 (c4e8f9ed74, 2021-05-24)"
   sodipodi:docname="RR.svg"
   x="0px"
   y="0px"
   width="881px"
   height="319px"
   viewBox="86.5 251.5 881 319"
   enable-background="new 86.5 251.5 881 319"
   xml:space="preserve"
   xmlns:inkscape="http://www.inkscape.org/namespaces/inkscape"
   xmlns:sodipodi="http://sodipodi.sourceforge.net/DTD/sodipodi-0.dtd"
   xmlns:xlink="http://www.w3.org/1999/xlink"
   xmlns="http://www.w3.org/2000/svg"
   xmlns:svg="http://www.w3.org/2000/svg"><defs
   id="defs61" />
<sodipodi:namedview
   inkscape:cy="257.06359"
   inkscape:cx="527.80579"
   inkscape:zoom="1.060049"
   showgrid="false"
   borderopacity="1"
   bordercolor="#eeeeee"
   pagecolor="#505050"
   id="namedview4"
   inkscape:window-x="0"
   inkscape:window-height="1006"
   inkscape:lockguides="true"
   inkscape:pagecheckerboard="0"
   inkscape:current-layer="g8"
   inkscape:pageopacity="0"
   inkscape:pageshadow="0"
   inkscape:window-width="1920"
   inkscape:window-maximized="1"
   inkscape:window-y="0">
	</sodipodi:namedview>
<g
   id="g8"
   transform="matrix(1.3333333,0,0,-1.3333333,0,816)"
   inkscape:label="ROGER_blanco"
   inkscape:groupmode="layer">
	<g
   id="g10"
   style="fill:#ffffff">
		<g
   id="g56"
   style="fill:#ffffff">
			<defs
   id="defs4">
				<rect
   id="SVGID_1_"
   x="-132"
   y="-102"
   width="1056"
   height="816" />
			</defs>
			<clipPath
   id="SVGID_2_">
				<use
   xlink:href="#SVGID_1_"
   overflow="visible"
   id="use6" />
			</clipPath>
			<g
   id="g12"
   clip-path="url(#SVGID_2_)"
   style="fill:#ffffff">
				<g
   id="g18"
   transform="translate(450.1865,401.0166)"
   style="fill:#ffffff">
					<path
   id="path20"
   d="M0,0l-107.999-30.871v-1.09L-6.873-3.044l-82.089-38.799l-19.222,4.326       c0.015-0.16,0.031-0.327,0.031-0.489c0-0.208-0.031-0.396-0.048-0.581l19.367-4.354L-0.62-1.243L0,0z"
   style="fill:#ffffff" />
				</g>
				<g
   id="g22"
   transform="translate(422.5947,326.3779)"
   style="fill:#ffffff">
					<path
   id="path24"
   d="M0,0l-34.598,24.396l60.252,47.928L0,0z M26.671,74.375c0,0-0.027-0.005-0.054-0.005       c-0.048-0.036-0.104-0.06-0.158-0.069l-62.778-49.969L0.517-1.658l27.075,76.297C27.309,74.509,27.011,74.426,26.671,74.375"
   style="fill:#ffffff" />
				</g>
				<g
   id="g26"
   transform="translate(386.793,351.1475)"
   style="fill:#ffffff">
					<path
   id="path28"
   d="M0,0l-0.056-0.051l-16.471-25.781l-8.368,33.018l83.578,39.501L0,0z M62.082,49.458L-25.731,7.952       l-0.392-0.181l9.176-36.218L0.748-0.771l61.856,49.236C62.386,48.77,62.207,49.102,62.082,49.458"
   style="fill:#ffffff" />
				</g>
				<g
   id="g30"
   transform="translate(370.4043,323.6338)"
   style="fill:#ffffff">
					<path
   id="path32"
   d="M0,0l-0.721,0.768L22.6,23.1l0.726-0.772L0,0z"
   style="fill:#ffffff" />
				</g>
				<g
   id="g34"
   transform="translate(393.8623,311.2305)"
   style="fill:#ffffff">
					<path
   id="path36"
   d="M0,0c-28.696,0-52.048,23.34-52.048,52.034c0,28.7,23.352,52.044,52.048,52.044       c15.573,0,30.224-6.909,40.15-18.933l-0.659-0.532C29.729,96.439,15.329,103.228,0,103.228       c-28.228,0-51.203-22.955-51.203-51.194C-51.203,23.805-28.228,0.851,0,0.851c28.214,0,51.192,22.954,51.192,51.183       c0,5.98-1.022,11.836-3.026,17.409l0.781,0.296c2.042-5.671,3.075-11.628,3.075-17.705C52.022,23.34,28.694,0,0,0"
   style="fill:#ffffff" />
				</g>
				<g
   id="g38"
   transform="translate(77.6543,277.7002)"
   style="fill:#ffffff">
					<path
   id="path40"
   d="M0,0v-14.926h2.973c2.844,0,4.59,1.257,4.59,5.145v4.784C7.563-1.529,6.381,0,3.666,0H0z M8.308-41.658       c-0.403,1.251-0.674,2.013-0.674,5.986v7.623c0,4.516-1.53,6.193-5.012,6.193H0v-19.802h-7.639V6.949H3.873       c7.925,0,11.319-3.675,11.319-11.175v-3.823c0-5.002-1.588-8.266-4.997-9.855c3.82-1.603,5.076-5.278,5.076-10.354v-7.495       c0-2.354,0.049-4.095,0.84-5.905L8.308-41.658z"
   style="fill:#ffffff" />
				</g>
				<g
   id="g42"
   transform="translate(127.7021,247.2275)"
   style="fill:#ffffff">
					<path
   id="path44"
   d="M0,0c0-3.479,1.524-4.785,3.962-4.785c2.42,0,3.945,1.306,3.945,4.785v26.247       c0,3.469-1.525,4.78-3.945,4.78C1.524,31.027,0,29.716,0,26.247V0z M-7.638,25.753c0,7.768,4.091,12.225,11.6,12.225       c7.49,0,11.583-4.457,11.583-12.225V0.482c0-7.779-4.093-12.22-11.583-12.22c-7.509,0-11.6,4.441-11.6,12.22L-7.638,25.753z"
   style="fill:#ffffff" />
				</g>
				<g
   id="g46"
   transform="translate(182.4014,263.1211)"
   style="fill:#ffffff">
					<path
   id="path48"
   d="M0,0h10.705v-15.411c0-7.779-3.897-12.221-11.394-12.221c-7.509,0-11.377,4.442-11.377,12.221v25.27       c0,7.768,3.868,12.225,11.377,12.225c7.497,0,11.394-4.457,11.394-12.225V5.135H3.477v5.219c0,3.468-1.533,4.78-3.961,4.78       c-2.429,0-3.959-1.312-3.959-4.78v-26.248c0-3.478,1.53-4.72,3.959-4.72c2.428,0,3.961,1.242,3.961,4.72v8.95H0L0,0z"
   style="fill:#ffffff" />
				</g>
				<g
   id="g50"
   transform="translate(228.4375,264.1602)"
   style="fill:#ffffff">
					<path
   id="path52"
   d="M0,0h10.473v-6.937H0v-14.232h13.193v-6.949H-7.639v48.607h20.832V13.54H0V0z"
   style="fill:#ffffff" />
				</g>
				<g
   id="g54"
   transform="translate(269.1074,284.6494)"
   style="fill:#ffffff">
					<path
   id="path56"
   d="M0,0h7.632v-41.658h12.566v-6.949H0V0z"
   style="fill:#ffffff" />
				</g>
				<path
   id="path58"
   d="M315.42,284.649h7.638v-48.607h-7.638V284.649z"
   style="fill:#ffffff" />
				<g
   id="g60"
   transform="translate(358.3838,247.2275)"
   style="fill:#ffffff">
					<path
   id="path62"
   d="M0,0c0-3.479,1.537-4.785,3.962-4.785c2.431,0,3.963,1.306,3.963,4.785v26.247       c0,3.469-1.532,4.78-3.963,4.78C1.537,31.027,0,29.716,0,26.247V0z M-7.619,25.753c0,7.768,4.072,12.225,11.581,12.225       c7.495,0,11.601-4.457,11.601-12.225V0.482c0-7.779-4.106-12.22-11.601-12.22c-7.509,0-11.581,4.441-11.581,12.22       L-7.619,25.753z"
   style="fill:#ffffff" />
				</g>
				<g
   id="g64"
   transform="translate(411.6699,260.6875)"
   style="fill:#ffffff">
					<path
   id="path66"
   d="M0,0c5.701,0,9.008,1.598,9.008,8.133v4.58c0,5.195-1.995,8.33-7.279,8.33h-6.871V0H0z M1.798,23.962       c7.431,0,10.403-4.109,10.403-10.967V8.76c0-5.703-2.215-8.962-6.989-10.08c4.986-1.104,6.989-4.646,6.989-9.925v-7.568       c0-2.018,0.15-4.235,1.193-5.833h-3.339c-0.826,1.464-1.047,3.202-1.047,5.833v7.633c0,6.465-3.525,8.275-9.092,8.275h-5.058       v-21.741h-3.19v48.608L1.798,23.962z"
   style="fill:#ffffff" />
				</g>
				<g
   id="g68"
   transform="translate(472.9805,262.1572)"
   style="fill:#ffffff">
					<path
   id="path70"
   d="M0,0v-2.929h-13.272v-20.268H2.696v-2.918H-16.46v48.607H2.696v-2.919h-15.968V0H0z"
   style="fill:#ffffff" />
				</g>
				<path
   id="path72"
   d="M510.457,236.042h-3.199v48.607h3.199V236.042z"
   style="fill:#ffffff" />
				<g
   id="g74"
   transform="translate(545.3066,236.042)"
   style="fill:#ffffff">
					<path
   id="path76"
   d="M0,0h-2.935v48.607h4.181L15.828,7.569v41.038h2.91V0h-3.539L0,43.325V0z"
   style="fill:#ffffff" />
				</g>
				<g
   id="g78"
   transform="translate(598.8906,247.71)"
   style="fill:#ffffff">
					<path
   id="path80"
   d="M0,0c0-5.268,2.082-9.16,7.435-9.16c5.412,0,7.564,3.892,7.564,9.16v25.271       c0,5.274-2.152,9.162-7.564,9.162C2.082,34.433,0,30.545,0,25.271V0z M-3.187,25.059c0,7.084,3.271,12.297,10.622,12.297       c7.49,0,10.758-5.213,10.758-12.297V0.209c0-7.088-3.268-12.284-10.758-12.284c-7.351,0-10.622,5.196-10.622,12.284       L-3.187,25.059z"
   style="fill:#ffffff" />
				</g>
				<g
   id="g82"
   transform="translate(669.2256,272.9111)"
   style="fill:#ffffff">
					<path
   id="path84"
   d="M0,0v-1.034h-3.065v1.238c0,5.14-1.933,9.027-7.219,9.027c-5.264,0-7.214-3.819-7.214-8.959       c0-11.798,17.57-12.001,17.57-25.411c0-6.997-3.051-12.137-10.479-12.137c-7.437,0-10.484,5.14-10.484,12.137v2.512h3.047       v-2.716c0-5.2,2.022-8.948,7.365-8.948c5.34,0,7.354,3.748,7.354,8.948c0,11.66-17.569,11.877-17.569,25.412       c0,7.288,3.196,12.016,10.335,12.086C-2.979,12.155,0,7.011,0,0"
   style="fill:#ffffff" />
				</g>
				<g
   id="g86"
   transform="translate(703.8008,247.71)"
   style="fill:#ffffff">
					<path
   id="path88"
   d="M0,0c0-5.268,2.087-9.16,7.425-9.16c5.421,0,7.583,3.892,7.583,9.16v25.271       c0,5.274-2.162,9.162-7.583,9.162C2.087,34.433,0,30.545,0,25.271V0z M-3.197,25.059c0,7.084,3.272,12.297,10.622,12.297       c7.491,0,10.759-5.213,10.759-12.297V0.209c0-7.088-3.268-12.284-10.759-12.284c-7.35,0-10.622,5.196-10.622,12.284       L-3.197,25.059z"
   style="fill:#ffffff" />
				</g>
				<g
   id="g90"
   transform="translate(347.5303,215.1943)"
   style="fill:#ffffff">
					<path
   id="path92"
   d="M0,0v-1.876h-0.765v1.91c0,2.95-1.111,5.413-4.303,5.413c-3.23,0-4.34-2.463-4.34-5.413v-12.427       c0-2.951,1.11-5.379,4.34-5.379c3.192,0,4.303,2.428,4.303,5.379v2.672H0v-2.636c0-3.369-1.39-6.146-5.104-6.146       c-3.679,0-5.068,2.777-5.068,6.146V0c0,3.365,1.389,6.143,5.068,6.143C-1.39,6.143,0,3.365,0,0"
   style="fill:#ffffff" />
				</g>
				<g
   id="g94"
   transform="translate(364.1543,202.8018)"
   style="fill:#ffffff">
					<path
   id="path96"
   d="M0,0c0-2.985,1.146-5.416,4.374-5.416c3.263,0,4.443,2.431,4.443,5.416v12.427       c0,2.984-1.18,5.413-4.443,5.413C1.146,17.84,0,15.411,0,12.427V0z M-0.764,12.393c0,3.4,1.458,6.142,5.138,6.142       c3.748,0,5.207-2.742,5.207-6.142V0.035c0-3.402-1.459-6.145-5.207-6.145c-3.68,0-5.138,2.743-5.138,6.145L-0.764,12.393z"
   style="fill:#ffffff" />
				</g>
				<g
   id="g98"
   transform="translate(391.7832,203.2871)"
   style="fill:#ffffff">
					<path
   id="path100"
   d="M0,0h8.364L4.131,17.008L0,0z M-0.139-0.695l-1.423-5.726h-0.694L3.61,17.911h1.076l6.003-24.332H9.927       L8.504-0.695L-0.139-0.695z"
   style="fill:#ffffff" />
				</g>
				<g
   id="g102"
   transform="translate(428.4375,215.1943)"
   style="fill:#ffffff">
					<path
   id="path104"
   d="M0,0v-1.876h-0.764v1.91c0,2.95-1.112,5.413-4.306,5.413c-3.226,0-4.339-2.463-4.339-5.413v-12.427       c0-2.951,1.113-5.379,4.339-5.379c3.194,0,4.306,2.428,4.306,5.379v2.672H0v-2.636c0-3.369-1.391-6.146-5.104-6.146       c-3.679,0-5.068,2.777-5.068,6.146V0c0,3.365,1.389,6.143,5.068,6.143C-1.391,6.143,0,3.365,0,0"
   style="fill:#ffffff" />
				</g>
				<g
   id="g106"
   transform="translate(445.0937,208.666)"
   style="fill:#ffffff">
					<path
   id="path108"
   d="M0,0v-11.8h-0.764v24.298H0V0.695h8.784v11.803h0.764V-11.8H8.784V0H0z"
   style="fill:#ffffff" />
				</g>
			</g>
		</g>
	</g>
</g>
</svg>
