<?xml version="1.0" encoding="UTF-8" standalone="no"?>
<!-- Generator: Adobe Illustrator 16.0.4, SVG Export Plug-In . SVG Version: 6.00 Build 0) -->

<svg
   id="Layer_1"
   x="0px"
   y="0px"
   width="290px"
   height="58px"
   viewBox="0 0 290 58"
   xml:space="preserve"
   version="1.1"
   sodipodi:docname="techops.svg"
   inkscape:version="1.1 (c4e8f9ed74, 2021-05-24)"
   xmlns:inkscape="http://www.inkscape.org/namespaces/inkscape"
   xmlns:sodipodi="http://sodipodi.sourceforge.net/DTD/sodipodi-0.dtd"
   xmlns="http://www.w3.org/2000/svg"
   xmlns:svg="http://www.w3.org/2000/svg"><defs
   id="defs59"><filter
     style="color-interpolation-filters:sRGB;"
     inkscape:label="Greyscale"
     id="filter63"
     x="0"
     y="0"
     width="1"
     height="1"><feColorMatrix
       values="0.21 0.72 0.072 0 0 0.21 0.72 0.072 0 0 0.21 0.72 0.072 0 0 0 0 0 1 0 "
       id="feColorMatrix61" /></filter></defs><sodipodi:namedview
   id="namedview57"
   pagecolor="#505050"
   bordercolor="#eeeeee"
   borderopacity="1"
   inkscape:pageshadow="0"
   inkscape:pageopacity="0"
   inkscape:pagecheckerboard="0"
   showgrid="false"
   inkscape:zoom="4.3896552"
   inkscape:cx="145"
   inkscape:cy="29.045562"
   inkscape:window-width="1920"
   inkscape:window-height="1006"
   inkscape:window-x="0"
   inkscape:window-y="0"
   inkscape:window-maximized="1"
   inkscape:current-layer="Layer_1" /> <g
   id="g54"
   style="filter:url(#filter63)"> <path
   fill="#0F4E9C"
   d="M36.438,21.273c1.174-0.888,3.325-1.605,4.793-1.605h7.819c0.98,0,1.528,0.766,1.218,1.704l-9.25,27.634 c-0.463,1.403-2.043,2.54-3.521,2.54L3.088,51.551c-3.416,0-4.164-2.198-1.405-4.259L36.438,21.273z"
   id="path2" /> <path
   fill="#DD0031"
   d="M60.182,23.884c-0.173,0.521-8.978,27.068-8.978,27.068l-1.527,4.588c-0.374,1.345,0.426,2.415,1.853,2.415 H61.94c2.449,0,5.079-1.903,5.852-4.216c0,0,10.222-30.792,10.505-31.656c0.282-0.863-0.008-2.416-1.853-2.416H66.034 C63.537,19.668,60.971,21.564,60.182,23.884"
   id="path4" /> <path
   fill="#DD0031"
   d="M80.373,0H67.531c-1.467,0-3.61,0.714-4.793,1.61l-11.686,8.718c-1.764,1.34-1.319,2.662,0.903,2.662 c0,0,27.435,0.002,28.094,0c0.66-0.003,1.439-0.386,1.747-1.257c0.092-0.273,2.234-6.673,2.234-6.673C84.939,2.28,83.3,0,80.373,0"
   id="path6" /> <path
   fill="#231F21"
   d="M90.97,24.436v-4.488h3.927V13.45h5.517v6.498h5.61v4.488h-5.61v10.425c0,0.999,0.178,1.824,0.538,2.478 c0.359,0.655,1.161,0.982,2.407,0.982c0.375,0,0.78-0.039,1.216-0.117c0.436-0.078,0.825-0.193,1.169-0.351l0.186,4.395 c-0.497,0.188-1.09,0.334-1.775,0.444c-0.687,0.108-1.34,0.164-1.963,0.164c-1.497,0-2.713-0.211-3.647-0.631 c-0.935-0.421-1.676-0.998-2.221-1.731c-0.546-0.731-0.92-1.573-1.122-2.524c-0.203-0.95-0.304-1.971-0.304-3.062V24.436H90.97z"
   id="path8" /> <path
   fill="#231F21"
   d="M124.725,28.924c0-0.717-0.1-1.403-0.304-2.058c-0.203-0.655-0.522-1.231-0.958-1.73 c-0.437-0.498-0.99-0.895-1.66-1.191c-0.671-0.297-1.457-0.444-2.361-0.444c-1.684,0-3.109,0.507-4.278,1.519 c-1.168,1.014-1.816,2.316-1.94,3.905H124.725z M130.335,31.448v0.749c0,0.25-0.016,0.5-0.047,0.747h-17.064 c0.063,0.812,0.273,1.552,0.632,2.221c0.358,0.671,0.833,1.247,1.426,1.73c0.592,0.483,1.263,0.864,2.011,1.145 c0.747,0.28,1.526,0.421,2.337,0.421c1.402,0,2.586-0.258,3.553-0.771c0.966-0.515,1.76-1.223,2.385-2.128l3.739,2.992 c-2.213,2.992-5.424,4.488-9.63,4.488c-1.748,0-3.352-0.273-4.817-0.818c-1.465-0.545-2.735-1.316-3.809-2.314 c-1.076-0.996-1.917-2.22-2.525-3.669c-0.607-1.45-0.912-3.093-0.912-4.932c0-1.809,0.304-3.452,0.912-4.933 c0.608-1.481,1.442-2.743,2.502-3.787c1.059-1.043,2.314-1.854,3.763-2.431c1.45-0.576,3.016-0.865,4.7-0.865 c1.558,0,3,0.257,4.324,0.771s2.469,1.279,3.437,2.291c0.965,1.013,1.722,2.276,2.267,3.786 C130.062,27.654,130.335,29.423,130.335,31.448"
   id="path10" /> <path
   fill="#231F21"
   d="M149.259,26.166c-0.437-0.623-1.091-1.146-1.964-1.566c-0.873-0.421-1.761-0.632-2.665-0.632 c-1.028,0-1.932,0.211-2.711,0.632c-0.78,0.42-1.426,0.974-1.94,1.659c-0.513,0.686-0.896,1.457-1.145,2.314 c-0.25,0.857-0.374,1.723-0.374,2.596c0,0.873,0.132,1.738,0.397,2.593c0.264,0.858,0.662,1.629,1.191,2.315 c0.531,0.687,1.192,1.24,1.988,1.659c0.794,0.422,1.722,0.631,2.782,0.631c0.872,0,1.745-0.17,2.618-0.514 c0.872-0.343,1.572-0.842,2.103-1.496l3.506,3.553c-0.934,0.999-2.126,1.771-3.577,2.314c-1.449,0.546-3.015,0.819-4.698,0.819 c-1.652,0-3.219-0.265-4.699-0.795c-1.479-0.529-2.773-1.31-3.88-2.338s-1.98-2.274-2.618-3.74 c-0.639-1.465-0.958-3.133-0.958-5.002c0-1.808,0.319-3.443,0.958-4.91c0.638-1.464,1.503-2.711,2.595-3.74 c1.091-1.028,2.362-1.823,3.81-2.384c1.45-0.561,3-0.842,4.652-0.842c1.651,0,3.25,0.313,4.792,0.936 c1.542,0.625,2.765,1.481,3.67,2.571L149.259,26.166z"
   id="path12" /> <path
   fill="#231F21"
   d="M168.053,19.292c1.465,0,2.719,0.257,3.763,0.771s1.901,1.192,2.572,2.034 c0.669,0.841,1.161,1.808,1.473,2.898c0.311,1.091,0.467,2.213,0.467,3.367v14.025h-5.609V30.046c0-0.655-0.047-1.333-0.141-2.035 c-0.093-0.701-0.288-1.339-0.584-1.917c-0.297-0.576-0.716-1.052-1.262-1.426c-0.546-0.375-1.271-0.562-2.174-0.562 c-0.904,0-1.683,0.173-2.338,0.515c-0.654,0.343-1.199,0.803-1.636,1.379c-0.437,0.578-0.763,1.224-0.982,1.94 c-0.217,0.718-0.326,1.449-0.326,2.198v12.249h-5.61V7.043h5.61V23.08h0.092c0.219-0.467,0.539-0.927,0.96-1.378 c0.42-0.452,0.911-0.857,1.473-1.216c0.56-0.358,1.199-0.647,1.916-0.866C166.431,19.402,167.211,19.292,168.053,19.292"
   id="path14" /> <path
   fill="#0F4E9C"
   d="M184.769,31.074c0,0.873,0.132,1.746,0.398,2.619c0.265,0.873,0.661,1.652,1.192,2.338 c0.529,0.684,1.199,1.246,2.01,1.682c0.811,0.438,1.777,0.655,2.899,0.655c1.123,0,2.087-0.217,2.898-0.655 c0.81-0.436,1.481-0.998,2.01-1.682c0.531-0.686,0.928-1.466,1.192-2.338s0.398-1.746,0.398-2.619c0-0.872-0.133-1.736-0.398-2.594 c-0.265-0.858-0.662-1.63-1.192-2.315c-0.529-0.686-1.2-1.239-2.01-1.66c-0.811-0.421-1.775-0.631-2.898-0.631 c-1.122,0-2.088,0.21-2.899,0.631c-0.811,0.421-1.481,0.974-2.01,1.66c-0.531,0.685-0.928,1.457-1.192,2.315 C184.901,29.338,184.769,30.202,184.769,31.074 M179.065,31.074c0-1.777,0.319-3.39,0.958-4.838 c0.639-1.45,1.505-2.688,2.596-3.718c1.089-1.028,2.384-1.823,3.881-2.384c1.496-0.561,3.085-0.841,4.769-0.841 c1.684,0,3.272,0.28,4.768,0.841c1.497,0.562,2.79,1.356,3.88,2.384c1.092,1.029,1.956,2.268,2.595,3.718 c0.639,1.449,0.959,3.062,0.959,4.838c0,1.776-0.32,3.397-0.959,4.863c-0.639,1.464-1.503,2.719-2.595,3.764 c-1.09,1.045-2.384,1.862-3.88,2.455c-1.496,0.591-3.084,0.888-4.768,0.888c-1.683,0-3.273-0.296-4.769-0.888 c-1.497-0.592-2.792-1.41-3.881-2.455c-1.091-1.045-1.957-2.299-2.596-3.764C179.385,34.472,179.065,32.851,179.065,31.074"
   id="path16" /> <path
   fill="#0F4E9C"
   d="M224.86,31.075c0-0.873-0.132-1.738-0.396-2.595s-0.664-1.628-1.192-2.315 c-0.531-0.685-1.2-1.239-2.01-1.66s-1.762-0.631-2.852-0.631c-1.029,0-1.948,0.218-2.758,0.654 c-0.812,0.437-1.504,0.999-2.081,1.684c-0.576,0.685-1.013,1.465-1.309,2.337c-0.297,0.873-0.444,1.746-0.444,2.618 c0,0.874,0.147,1.738,0.444,2.595c0.295,0.858,0.732,1.628,1.309,2.314c0.577,0.686,1.27,1.238,2.081,1.659 c0.81,0.421,1.729,0.632,2.758,0.632c1.089,0,2.041-0.218,2.852-0.656c0.811-0.436,1.479-0.996,2.01-1.683 c0.529-0.685,0.928-1.465,1.192-2.337S224.86,31.947,224.86,31.075 M211.77,19.947v3.132h0.14c0.281-0.437,0.646-0.88,1.099-1.333 c0.451-0.451,1.005-0.856,1.659-1.215c0.656-0.358,1.396-0.654,2.222-0.888c0.825-0.234,1.753-0.351,2.782-0.351 c1.589,0,3.055,0.303,4.395,0.912c1.34,0.607,2.493,1.442,3.46,2.501c0.965,1.06,1.713,2.307,2.244,3.739 c0.53,1.435,0.794,2.978,0.794,4.629c0,1.652-0.256,3.203-0.771,4.651c-0.515,1.45-1.247,2.712-2.198,3.787 c-0.951,1.075-2.104,1.933-3.46,2.571c-1.355,0.639-2.892,0.959-4.605,0.959c-1.589,0-3.047-0.328-4.371-0.982 c-1.325-0.654-2.346-1.543-3.063-2.665h-0.093v8.977h-5.61V19.947H211.77z"
   id="path18" /> <path
   fill="#0F4E9C"
   d="M247.114,25.932c-0.499-0.655-1.185-1.224-2.057-1.708c-0.873-0.482-1.822-0.724-2.852-0.724 c-0.905,0-1.729,0.188-2.477,0.562s-1.123,0.997-1.123,1.87c0,0.873,0.414,1.488,1.239,1.846c0.826,0.359,2.033,0.725,3.623,1.099 c0.842,0.187,1.691,0.437,2.549,0.749c0.857,0.312,1.636,0.725,2.338,1.239c0.7,0.514,1.269,1.153,1.706,1.917 c0.436,0.764,0.655,1.691,0.655,2.782c0,1.372-0.258,2.533-0.771,3.482c-0.514,0.952-1.201,1.723-2.058,2.315 c-0.857,0.591-1.854,1.021-2.992,1.285c-1.138,0.265-2.314,0.398-3.529,0.398c-1.747,0-3.444-0.32-5.096-0.958 s-3.023-1.55-4.114-2.736l3.692-3.458c0.625,0.811,1.434,1.48,2.431,2.01c0.999,0.53,2.104,0.794,3.32,0.794 c0.404,0,0.818-0.045,1.239-0.14c0.421-0.093,0.811-0.241,1.168-0.444c0.358-0.202,0.647-0.475,0.865-0.818 c0.218-0.343,0.327-0.763,0.327-1.262c0-0.936-0.428-1.605-1.285-2.011c-0.857-0.404-2.144-0.81-3.857-1.216 c-0.841-0.187-1.66-0.428-2.455-0.724c-0.795-0.297-1.504-0.686-2.127-1.169c-0.625-0.483-1.122-1.083-1.496-1.801 c-0.375-0.716-0.562-1.604-0.562-2.665c0-1.247,0.257-2.322,0.771-3.226c0.515-0.903,1.192-1.644,2.034-2.221 c0.841-0.577,1.792-1.005,2.852-1.285c1.06-0.282,2.15-0.422,3.273-0.422c1.62,0,3.202,0.281,4.745,0.842s2.766,1.418,3.669,2.572 L247.114,25.932z"
   id="path20" /> <polygon
   fill="#231F21"
   points="254.688,25.838 259.293,25.838 263.594,37.596 263.664,37.596 267.919,25.838 272.547,25.838 272.547,42.388 269.625,42.388 269.625,29.088 269.579,29.088 264.552,42.388 262.496,42.388 257.54,29.088 257.493,29.088 257.493,42.388 254.688,42.388 "
   id="polygon22" /> <polygon
   fill="#231F21"
   points="284.796,25.838 281.43,31.496 278.018,25.838 274.464,25.838 279.606,33.553 273.879,42.388 277.433,42.388 281.312,35.89 285.357,42.388 289.074,42.388 283.135,33.622 288.186,25.838 "
   id="polygon24" /> <path
   fill="#231F21"
   d="M173.901,52.718l1.341,3.01h-2.689L173.901,52.718z M173.598,51.943l-2.688,5.944h0.682l0.7-1.56h3.212 l0.691,1.56h0.717l-2.689-5.944H173.598z"
   id="path26" /> <path
   fill="#231F21"
   d="M177.968,53.528h0.649v0.759c0.287-0.473,0.743-0.852,1.493-0.852c1.054,0,1.67,0.708,1.67,1.745v2.708 h-0.65v-2.546c0-0.81-0.438-1.316-1.205-1.316c-0.75,0-1.308,0.549-1.308,1.366v2.496h-0.649V53.528z"
   id="path28" /> <polygon
   fill="#DD0031"
   points="190.425,51.985 188.629,54.775 186.833,51.985 185.729,51.985 185.729,57.887 186.748,57.887 186.748,53.672 188.595,56.438 188.629,56.438 190.492,53.655 190.492,57.887 191.53,57.887 191.53,51.985 "
   id="polygon30" /> <path
   fill="#DD0031"
   d="M195.605,54.911c0.741,0,1.214-0.388,1.214-0.987v-0.017c0-0.632-0.456-0.977-1.223-0.977h-1.51v1.981 H195.605z M193.05,51.985h2.63c0.742,0,1.324,0.219,1.704,0.59c0.312,0.32,0.489,0.758,0.489,1.274v0.016 c0,0.97-0.582,1.552-1.409,1.788l1.594,2.235h-1.222l-1.45-2.058h-0.018h-1.282v2.058h-1.037V51.985z"
   id="path32" /> <path
   fill="#DD0031"
   d="M203.972,54.953v-0.017c0-1.147-0.835-2.1-2.006-2.1c-1.173,0-1.991,0.935-1.991,2.082v0.018 c0,1.146,0.835,2.099,2.008,2.099C203.154,57.035,203.972,56.1,203.972,54.953 M198.887,54.953v-0.017 c0-1.661,1.281-3.053,3.095-3.053c1.812,0,3.077,1.375,3.077,3.035v0.018c0,1.661-1.281,3.052-3.094,3.052 S198.887,56.614,198.887,54.953"
   id="path34" /> <polygon
   fill="#231F21"
   points="210.172,51.985 210.172,54.438 207.355,54.438 207.355,51.985 206.319,51.985 206.319,57.887 207.355,57.887 207.355,55.4 210.172,55.4 210.172,57.887 211.209,57.887 211.209,51.985 "
   id="polygon36" /> <path
   fill="#231F21"
   d="M217.552,54.953v-0.017c0-1.147-0.834-2.1-2.007-2.1c-1.172,0-1.991,0.935-1.991,2.082v0.018 c0,1.146,0.834,2.099,2.008,2.099C216.734,57.035,217.552,56.1,217.552,54.953 M212.467,54.953v-0.017 c0-1.661,1.282-3.053,3.096-3.053c1.812,0,3.077,1.375,3.077,3.035v0.018c0,1.661-1.282,3.052-3.094,3.052 C213.732,57.989,212.467,56.614,212.467,54.953"
   id="path38" /> <polygon
   fill="#231F21"
   points="219.899,51.985 219.899,57.887 224.039,57.887 224.039,56.942 220.937,56.942 220.937,51.985 "
   id="polygon40" /> <path
   fill="#231F21"
   d="M227.321,56.942c1.239,0,2.049-0.834,2.049-1.99v-0.016c0-1.155-0.81-2.006-2.049-2.006h-1.164v4.013 H227.321z M225.12,51.985h2.201c1.854,0,3.137,1.274,3.137,2.934v0.017c0,1.661-1.282,2.951-3.137,2.951h-2.201V51.985z"
   id="path42" /> <rect
   x="231.775"
   y="51.985"
   fill="#231F21"
   width="1.037"
   height="5.902"
   id="rect44" /> <polygon
   fill="#231F21"
   points="238.514,51.985 238.514,56.066 235.351,51.985 234.391,51.985 234.391,57.887 235.411,57.887 235.411,53.688 238.665,57.887 239.533,57.887 239.533,51.985 "
   id="polygon46" /> <path
   fill="#231F21"
   d="M240.792,54.953v-0.017c0-1.653,1.265-3.053,3.043-3.053c1.03,0,1.662,0.287,2.27,0.801l-0.658,0.784 c-0.456-0.388-0.902-0.632-1.653-0.632c-1.087,0-1.914,0.953-1.914,2.082v0.018c0,1.214,0.801,2.107,2.007,2.107 c0.556,0,1.062-0.176,1.425-0.446v-1.105h-1.509v-0.901h2.513v2.479c-0.582,0.497-1.417,0.919-2.463,0.919 C242.006,57.989,240.792,56.673,240.792,54.953"
   id="path48" /> <path
   fill="#231F21"
   d="M247.271,57.028l0.623-0.743c0.566,0.49,1.131,0.768,1.864,0.768c0.641,0,1.046-0.294,1.046-0.742v-0.017 c0-0.422-0.237-0.649-1.333-0.903c-1.256-0.302-1.965-0.674-1.965-1.762v-0.017c0-1.011,0.843-1.712,2.015-1.712 c0.86,0,1.543,0.261,2.141,0.743l-0.556,0.784c-0.531-0.396-1.062-0.607-1.602-0.607c-0.607,0-0.962,0.312-0.962,0.701v0.016 c0,0.456,0.27,0.658,1.4,0.928c1.248,0.303,1.896,0.751,1.896,1.729v0.016c0,1.105-0.868,1.762-2.108,1.762 C248.83,57.971,247.979,57.66,247.271,57.028"
   id="path50" /> <path
   fill="#231F21"
   d="M256.212,57.896h0.735v-2.143h1.583c1.387,0,2.561-0.677,2.561-1.987v-0.017 c0-1.197-0.969-1.925-2.439-1.925h-2.44V57.896z M256.948,55.128v-2.672h1.647c1.053,0,1.752,0.451,1.752,1.319v0.017 c0,0.797-0.709,1.336-1.789,1.336H256.948z M263.652,57.991c0.847,0,1.398-0.365,1.732-0.763v0.667h0.708v-2.741 c0-0.574-0.168-1.007-0.503-1.319c-0.345-0.321-0.876-0.494-1.556-0.494c-0.707,0-1.218,0.156-1.75,0.381l0.214,0.547 c0.446-0.192,0.894-0.322,1.461-0.322c0.904,0,1.425,0.417,1.425,1.214v0.139c-0.428-0.113-0.856-0.19-1.471-0.19 c-1.22,0-2.058,0.502-2.058,1.466v0.017C261.855,57.514,262.749,57.991,263.652,57.991 M263.792,57.454 c-0.652,0-1.211-0.33-1.211-0.894v-0.017c0-0.539,0.513-0.903,1.406-0.903c0.587,0,1.053,0.096,1.406,0.191v0.417 C265.393,56.958,264.677,57.454,263.792,57.454 M267.61,57.896h0.717v-1.787c0-1.354,0.856-2.056,1.909-2.056h0.055v-0.72 c-0.912-0.035-1.611,0.503-1.964,1.249V53.41h-0.717V57.896z M272.992,57.975c0.344,0,0.615-0.07,0.866-0.191v-0.572 c-0.251,0.112-0.457,0.155-0.698,0.155c-0.484,0-0.811-0.199-0.811-0.746V54h1.527v-0.59h-1.527v-1.353h-0.717v1.353h-0.669V54 h0.669v2.706C271.633,57.619,272.22,57.975,272.992,57.975 M275.143,57.896h0.718v-2.567c0-0.842,0.614-1.406,1.442-1.406 c0.848,0,1.332,0.521,1.332,1.354v2.619h0.717v-2.784c0-1.068-0.68-1.796-1.843-1.796c-0.83,0-1.333,0.391-1.648,0.875V53.41 h-0.718V57.896z M281.308,55.926h3.818c0.01-0.103,0.01-0.173,0.01-0.233c0-1.319-0.819-2.377-2.244-2.377 c-1.333,0-2.309,1.04-2.309,2.342c0,1.396,1.08,2.342,2.401,2.342c0.914,0,1.5-0.338,1.985-0.841l-0.447-0.373 c-0.391,0.382-0.857,0.633-1.519,0.633C282.156,57.418,281.411,56.872,281.308,55.926 M281.308,55.388 c0.103-0.867,0.736-1.509,1.564-1.509c0.95,0,1.453,0.694,1.536,1.509H281.308z M286.392,57.896h0.717v-1.787 c0-1.354,0.857-2.056,1.909-2.056h0.056v-0.72c-0.913-0.035-1.611,0.503-1.965,1.249V53.41h-0.717V57.896z"
   id="path52" /> </g> </svg>
